<svg version="1.1" xmlns="http://www.w3.org/2000/svg" viewBox="0 0 3352.7530215263555 539.5499785155736" width="3352.7530215263555" height="539.5499785155736">
  <!-- svg-source:excalidraw -->
  
  <defs>
    <style class="style-fonts">
      @font-face {
        font-family: "Virgil";
        src: url("https://excalidraw.com/Virgil.woff2");
      }
      @font-face {
        font-family: "Cascadia";
        src: url("https://excalidraw.com/Cascadia.woff2");
      }
      @font-face {
        font-family: "Assistant";
        src: url("https://excalidraw.com/Assistant-Regular.woff2");
      }
    </style>
    
  </defs>
  <g stroke-linecap="round" transform="translate(10 12.883311848906942) rotate(0 476.6666666666666 258.3333333333333)"><path d="M7.86 8.16 C7.86 8.16, 7.86 8.16, 7.86 8.16 M7.86 8.16 C7.86 8.16, 7.86 8.16, 7.86 8.16 M2.35 20.59 C11.68 12.79, 13.21 3.7, 18.1 2.48 M2.35 20.59 C6.23 16.08, 10.23 11.62, 18.1 2.48 M1.43 27.75 C6.82 19.11, 15.89 10.29, 24.4 1.33 M1.43 27.75 C10.7 19.67, 19.23 9.98, 24.4 1.33 M0.52 34.9 C14.95 24.19, 24.72 12.36, 30.7 0.18 M0.52 34.9 C7.12 25.52, 18.15 18.87, 30.7 0.18 M0.26 41.3 C16.08 25.11, 25.4 11.04, 36.34 -0.21 M0.26 41.3 C11.47 26.77, 21.5 15.51, 36.34 -0.21 M-0.01 47.7 C17.6 31.05, 27.2 13.67, 41.33 0.15 M-0.01 47.7 C14.4 31.51, 31.46 12.61, 41.33 0.15 M0.39 53.34 C14.74 34.94, 33.15 13.88, 46.97 -0.25 M0.39 53.34 C17.31 31.7, 34.76 12.64, 46.97 -0.25 M0.13 59.74 C11.13 49.1, 26.15 30, 51.96 0.11 M0.13 59.74 C15.06 46.07, 28.72 28.65, 51.96 0.11 M0.52 65.38 C11.34 49.18, 23.45 31.92, 57.6 -0.28 M0.52 65.38 C18.75 40.47, 38.06 22.09, 57.6 -0.28 M0.26 71.78 C19.19 51.48, 39.59 25.69, 62.59 0.08 M0.26 71.78 C24.29 45.65, 47.69 20.21, 62.59 0.08 M0 78.17 C19.1 61.61, 30.96 39.84, 67.57 0.44 M0 78.17 C22.45 50.9, 46.36 22.32, 67.57 0.44 M0.39 83.82 C21.01 55.3, 50.91 27.8, 73.22 0.04 M0.39 83.82 C19.06 65.45, 35.99 45.81, 73.22 0.04 M0.13 90.22 C32.05 57.67, 57.4 18.6, 78.2 0.41 M0.13 90.22 C29.9 57.7, 55.56 27.97, 78.2 0.41 M0.53 95.86 C21.34 76.25, 34.87 55.27, 83.85 0.01 M0.53 95.86 C28.97 59.4, 61.4 21.56, 83.85 0.01 M0.26 102.26 C25.4 68.54, 52.3 41.24, 88.83 0.37 M0.26 102.26 C28.97 70, 56.67 39.86, 88.83 0.37 M0 108.65 C29.59 75.99, 54.8 47.65, 94.48 -0.02 M0 108.65 C34.85 68.99, 66.97 29.96, 94.48 -0.02 M0.4 114.3 C22.97 89.65, 51.21 60.82, 99.46 0.34 M0.4 114.3 C29.98 80.22, 59.07 43.87, 99.46 0.34 M0.14 120.69 C31.87 89, 55.34 47.9, 105.11 -0.06 M0.14 120.69 C29.7 86.91, 60.67 53.81, 105.11 -0.06 M0.53 126.34 C29.09 92.83, 60.09 58.43, 110.09 0.3 M0.53 126.34 C31.09 91.09, 61.82 57.02, 110.09 0.3 M0.27 132.74 C27.94 108.63, 49.3 73.06, 115.74 -0.09 M0.27 132.74 C28.16 103.23, 56.45 68.31, 115.74 -0.09 M0.01 139.13 C26.93 104.71, 59.98 68.73, 120.72 0.27 M0.01 139.13 C32.97 95.84, 73.47 52.98, 120.72 0.27 M0.4 144.78 C34.31 109.4, 59.51 76.32, 126.37 -0.13 M0.4 144.78 C42.76 96.44, 84.68 50.16, 126.37 -0.13 M0.14 151.17 C28.84 110.27, 66.61 75, 131.35 0.23 M0.14 151.17 C39.67 108.95, 77.84 62.72, 131.35 0.23 M0.54 156.82 C54.07 96.11, 101.76 37.86, 137 -0.16 M0.54 156.82 C32.75 115.47, 66.14 74.92, 137 -0.16 M0.27 163.22 C29.47 123.64, 64.73 92.47, 141.98 0.2 M0.27 163.22 C43.02 110.03, 88.27 59.96, 141.98 0.2 M0.01 169.61 C58.55 100.94, 115.05 36.73, 147.63 -0.2 M0.01 169.61 C36.15 129.44, 72.95 85.99, 147.63 -0.2 M0.41 175.26 C39.57 132.97, 74.94 87.35, 152.61 0.16 M0.41 175.26 C35.54 136.2, 66.73 99.15, 152.61 0.16 M0.15 181.65 C47.5 123.72, 100.46 68.21, 158.26 -0.23 M0.15 181.65 C60.31 112.84, 120.75 42.36, 158.26 -0.23 M0.54 187.3 C37.08 145.22, 73.24 101.07, 163.24 0.13 M0.54 187.3 C37.18 136.63, 80.93 91.53, 163.24 0.13 M0.28 193.69 C71.91 120.22, 134.01 41.41, 168.89 -0.27 M0.28 193.69 C45.74 136.05, 94.96 79.52, 168.89 -0.27 M0.02 200.09 C59.3 131, 115.03 65.33, 173.87 0.09 M0.02 200.09 C43.99 146.88, 90.26 94.68, 173.87 0.09 M0.41 205.74 C48.44 153.18, 87.81 102.18, 178.86 0.45 M0.41 205.74 C36.27 159.86, 74.16 116.79, 178.86 0.45 M0.15 212.13 C59.72 151.49, 112.47 86.18, 184.5 0.06 M0.15 212.13 C49.73 159.11, 95.79 104.67, 184.5 0.06 M0.55 217.78 C71.25 138.51, 136.97 63.17, 189.49 0.42 M0.55 217.78 C67.56 138.71, 136.25 61.66, 189.49 0.42 M0.28 224.17 C53.73 159.65, 103.78 98.95, 195.13 0.03 M0.28 224.17 C51.37 166.04, 106.23 106.42, 195.13 0.03 M0.02 230.57 C70.07 151.86, 141.74 69.29, 200.12 0.39 M0.02 230.57 C70.32 152.95, 137.81 74.93, 200.12 0.39 M0.42 236.22 C58.09 174.13, 108.63 116.74, 205.76 -0.01 M0.42 236.22 C59.32 167.63, 114.47 103.97, 205.76 -0.01 M0.16 242.61 C73.54 160.07, 146.11 78.95, 210.75 0.35 M0.16 242.61 C74.09 161.5, 146.49 79.63, 210.75 0.35 M-0.11 249.01 C45.13 194.21, 97.41 138.24, 216.39 -0.04 M-0.11 249.01 C58.82 179.7, 118.24 111.44, 216.39 -0.04 M0.29 254.65 C47.22 198.31, 98.82 144.72, 221.38 0.32 M0.29 254.65 C76.71 166.58, 151.48 80, 221.38 0.32 M0.03 261.05 C80.83 163.44, 165.36 68.62, 227.02 -0.08 M0.03 261.05 C52.46 200.57, 105.32 141.33, 227.02 -0.08 M0.42 266.69 C65.09 191.55, 131.21 121.56, 232.01 0.28 M0.42 266.69 C70.84 183.29, 141.35 100.65, 232.01 0.28 M0.16 273.09 C67.23 194.52, 140.59 110.43, 237.65 -0.11 M0.16 273.09 C73.43 188.14, 149.36 101.54, 237.65 -0.11 M-0.1 279.49 C58.36 219.11, 108.99 156.51, 242.64 0.25 M-0.1 279.49 C49.59 224.06, 100.28 168.31, 242.64 0.25 M0.29 285.13 C61.68 215.83, 125.53 142.21, 248.28 -0.15 M0.29 285.13 C67.98 211.13, 135.98 134.15, 248.28 -0.15 M0.03 291.53 C56.34 229.86, 112.09 165.93, 253.27 0.21 M0.03 291.53 C89.35 188.22, 181.44 84.07, 253.27 0.21 M0.43 297.17 C64.08 221.67, 131.26 143.05, 258.91 -0.18 M0.43 297.17 C60.52 228.84, 118.87 160.87, 258.91 -0.18 M0.17 303.57 C97.23 185.97, 198.89 73.04, 263.9 0.18 M0.17 303.57 C80.71 207.84, 163.1 111.41, 263.9 0.18 M-0.1 309.97 C99.73 204.44, 194.76 93.74, 269.54 -0.22 M-0.1 309.97 C81.69 210.49, 167.45 112.9, 269.54 -0.22 M0.3 315.61 C77.46 229.71, 151.08 145.92, 274.53 0.14 M0.3 315.61 C101.7 195.3, 204.27 77.5, 274.53 0.14 M0.04 322.01 C63.76 256.97, 120.6 185.07, 280.17 -0.25 M0.04 322.01 C71.04 244.58, 139.95 165.95, 280.17 -0.25 M0.43 327.65 C76.82 245.44, 150.17 159.78, 285.16 0.11 M0.43 327.65 C71.34 243.09, 143.76 157.25, 285.16 0.11 M0.17 334.05 C88.46 227.82, 180.59 125.05, 290.8 -0.28 M0.17 334.05 C91.2 227.47, 181.42 122.94, 290.8 -0.28 M-0.09 340.45 C90.52 233.65, 189.38 123.26, 295.79 0.08 M-0.09 340.45 C73.12 256.58, 145.99 172.37, 295.79 0.08 M0.3 346.09 C96.78 232.85, 195.12 118.76, 300.78 0.44 M0.3 346.09 C64.28 276.38, 125.98 205.65, 300.78 0.44 M0.04 352.49 C78.9 258.85, 157.04 168.36, 306.42 0.04 M0.04 352.49 C67.22 271.29, 135.77 191.71, 306.42 0.04 M0.44 358.13 C111.86 225, 225.16 94.95, 311.41 0.4 M0.44 358.13 C124.49 218.21, 248.28 76.15, 311.41 0.4 M0.18 364.53 C80.35 268.81, 164.91 173.57, 317.05 0.01 M0.18 364.53 C83.17 271.32, 164.12 177.69, 317.05 0.01 M-0.09 370.93 C108.44 247.51, 214.75 122.58, 322.04 0.37 M-0.09 370.93 C108.65 244.51, 221.52 116.92, 322.04 0.37 M0.31 376.57 C116.3 239.76, 232.78 106.5, 327.68 -0.03 M0.31 376.57 C132.88 225.32, 262.87 75.18, 327.68 -0.03 M0.05 382.97 C116.35 248.74, 233.15 113.33, 332.67 0.33 M0.05 382.97 C98.36 266.9, 198.76 151.17, 332.67 0.33 M0.44 388.61 C125 239.78, 251.95 95.62, 338.31 -0.06 M0.44 388.61 C99.36 276.23, 197.85 164.4, 338.31 -0.06 M0.18 395.01 C123.93 251.53, 246.37 107.06, 343.3 0.3 M0.18 395.01 C100.13 277.63, 204.5 158.62, 343.3 0.3 M-0.08 401.41 C124.65 257.26, 247.48 112.45, 348.94 -0.1 M-0.08 401.41 C123.64 254.95, 250.86 110.11, 348.94 -0.1 M0.31 407.05 C109.71 277.78, 218.58 150.89, 353.93 0.26 M0.31 407.05 C127.35 259.26, 255.62 111.26, 353.93 0.26 M0.05 413.45 C128.57 266.37, 254.87 117.48, 359.57 -0.13 M0.05 413.45 C87.28 314.93, 171.51 218.44, 359.57 -0.13 M0.45 419.09 C130.7 268.52, 264.45 114.87, 364.56 0.23 M0.45 419.09 C113.7 291.72, 225.69 163.15, 364.56 0.23 M0.18 425.49 C87.8 325.25, 174.6 225.06, 370.2 -0.17 M0.18 425.49 C116.36 296.92, 229.71 165.5, 370.2 -0.17 M-0.08 431.89 C112.04 309.81, 218.95 185.86, 375.19 0.19 M-0.08 431.89 C120.57 293.91, 240.63 155.65, 375.19 0.19 M0.32 437.53 C109.52 314.65, 217.64 188.7, 380.83 -0.2 M0.32 437.53 C145.09 275.06, 287.24 111.23, 380.83 -0.2 M0.06 443.93 C106.01 322.74, 208.97 201.83, 385.82 0.16 M0.06 443.93 C148.77 266.21, 302.89 90.43, 385.82 0.16 M0.45 449.57 C157.27 269.1, 308.35 92.43, 391.46 -0.24 M0.45 449.57 C83.89 354.33, 166.87 258.87, 391.46 -0.24 M0.19 455.97 C128.2 309.12, 252.6 166.67, 396.45 0.12 M0.19 455.97 C123.1 316.28, 243.49 178.14, 396.45 0.12 M-0.07 462.37 C108.35 343.69, 211.6 219.67, 402.09 -0.27 M-0.07 462.37 C154.88 283.15, 313.44 101.67, 402.09 -0.27 M0.32 468.01 C94.43 361.64, 188.35 256.82, 407.08 0.09 M0.32 468.01 C86.96 368.72, 171.1 269.84, 407.08 0.09 M0.06 474.41 C87.95 374.93, 176.28 276.01, 412.07 0.45 M0.06 474.41 C111.86 344.93, 223.5 218.03, 412.07 0.45 M0.46 480.05 C98.34 370.99, 196.78 257.86, 417.71 0.06 M0.46 480.05 C109.64 356.14, 215.45 234.05, 417.71 0.06 M0.19 486.45 C158 307.49, 313.52 127.41, 422.7 0.42 M0.19 486.45 C159.28 302.34, 322.02 116.16, 422.7 0.42 M1.25 491.34 C160.3 308.19, 317.33 130.22, 428.34 0.02 M1.25 491.34 C160.82 301.77, 323.33 114.77, 428.34 0.02 M1.64 496.98 C118.45 355.23, 241.67 215.78, 433.33 0.38 M1.64 496.98 C115.28 366.25, 229.03 235.46, 433.33 0.38 M4 500.36 C127.15 360.17, 250.79 218.21, 438.97 -0.01 M4 500.36 C136.36 345.64, 270.28 192.67, 438.97 -0.01 M6.37 503.74 C133.34 352.23, 261.81 204.6, 443.96 0.35 M6.37 503.74 C106.38 389.35, 205.93 274.56, 443.96 0.35 M8.73 507.12 C113.18 392.47, 213.18 273.89, 449.6 -0.05 M8.73 507.12 C162.07 331.14, 315.2 155.68, 449.6 -0.05 M11.09 510.5 C184.32 308.95, 357.93 111.67, 454.59 0.31 M11.09 510.5 C175.64 318.98, 343.6 126.38, 454.59 0.31 M14.11 513.12 C144.13 362.59, 274.84 212.98, 460.23 -0.08 M14.11 513.12 C190.76 309.26, 366.65 107.89, 460.23 -0.08 M18.44 514.24 C168.49 342.96, 319.96 171.77, 465.22 0.28 M18.44 514.24 C108.46 409.57, 202.29 302.04, 465.22 0.28 M22.77 515.35 C181.41 330.94, 344.29 148.44, 470.86 -0.12 M22.77 515.35 C177.6 340.84, 329.45 165.96, 470.86 -0.12 M27.76 515.71 C173.51 346.57, 318.52 179.8, 475.85 0.24 M27.76 515.71 C209.78 307.36, 388.15 100.25, 475.85 0.24 M32.09 516.82 C172.43 347.06, 315.14 182.36, 481.49 -0.15 M32.09 516.82 C149.62 385.8, 265.89 253.57, 481.49 -0.15 M37.73 516.43 C201.22 324.83, 365.68 134.97, 486.48 0.21 M37.73 516.43 C132.21 405.79, 229.94 294.75, 486.48 0.21 M42.72 516.79 C170.97 369.23, 301.17 219.97, 492.12 -0.19 M42.72 516.79 C133.78 413.2, 224.15 308.85, 492.12 -0.19 M47.71 517.15 C176.24 368.82, 305.18 223.1, 497.11 0.17 M47.71 517.15 C187.33 352.58, 329.91 189.65, 497.11 0.17 M53.35 516.76 C227.43 314.29, 403.33 111.16, 502.75 -0.22 M53.35 516.76 C153.05 398.22, 254.44 280.39, 502.75 -0.22 M58.34 517.12 C189.82 365.7, 325.78 213.55, 507.74 0.14 M58.34 517.12 C206.92 342.41, 359.43 168.23, 507.74 0.14 M63.98 516.72 C227.52 330.93, 392.82 141.74, 513.38 -0.25 M63.98 516.72 C226.8 329.85, 390.96 140.74, 513.38 -0.25 M68.97 517.08 C181.52 386.03, 294.17 255.6, 518.37 0.11 M68.97 517.08 C211.77 355.48, 351.41 194.14, 518.37 0.11 M74.61 516.69 C232.23 336.24, 388.52 156.11, 523.35 0.47 M74.61 516.69 C181.78 388.49, 289.75 264.13, 523.35 0.47 M79.6 517.05 C255.97 307.94, 436.82 102.7, 529 0.07 M79.6 517.05 C197.4 381.41, 312.56 250.26, 529 0.07 M85.24 516.65 C229.49 353.57, 368.67 191.46, 533.98 0.43 M85.24 516.65 C205.36 379.99, 325 242.55, 533.98 0.43 M90.23 517.01 C188.48 405.28, 280.97 295.16, 539.63 0.04 M90.23 517.01 C256.24 320.42, 424.36 128.36, 539.63 0.04 M95.87 516.62 C204.19 397.93, 306.98 280.6, 544.61 0.4 M95.87 516.62 C198.95 393.34, 306.1 269.87, 544.61 0.4 M100.86 516.98 C267.02 325.59, 433.85 136.11, 550.26 0 M100.86 516.98 C218.4 380.95, 333.91 248.23, 550.26 0 M106.5 516.58 C237.11 369.37, 365.47 221.77, 555.24 0.36 M106.5 516.58 C259.02 343.1, 411.63 166.82, 555.24 0.36 M111.49 516.94 C270.51 329.27, 431.13 142.7, 560.89 -0.03 M111.49 516.94 C242.64 364.65, 370.87 217.41, 560.89 -0.03 M117.13 516.55 C241.89 375.66, 368.3 233.82, 565.87 0.33 M117.13 516.55 C273.58 333.19, 431.37 151.63, 565.87 0.33 M122.12 516.91 C252.09 363.83, 383.6 212.12, 571.52 -0.07 M122.12 516.91 C221.95 400.58, 325.47 282.65, 571.52 -0.07 M127.76 516.51 C224.62 403.5, 321.07 291.98, 576.5 0.29 M127.76 516.51 C225.83 396.62, 328.06 279.61, 576.5 0.29 M132.75 516.87 C262.57 370.05, 389.32 225.16, 582.15 -0.1 M132.75 516.87 C239.56 391.44, 345.9 268.84, 582.15 -0.1 M138.39 516.48 C280.68 344.75, 430 176.58, 587.14 0.26 M138.39 516.48 C282.28 352.33, 424.86 190.39, 587.14 0.26 M143.38 516.84 C258.68 382.22, 374.41 249.85, 592.78 -0.14 M143.38 516.84 C254.78 383.69, 368.97 252.89, 592.78 -0.14 M149.02 516.45 C263.17 392.76, 373.03 263.09, 597.77 0.22 M149.02 516.45 C306.22 333.43, 466.79 149.17, 597.77 0.22 M154.01 516.81 C319.65 323.71, 482.99 133.46, 603.41 -0.17 M154.01 516.81 C247.3 405.85, 343.03 297, 603.41 -0.17 M159.65 516.41 C257.74 398.07, 354.67 284.02, 608.4 0.19 M159.65 516.41 C279.28 375.78, 401.41 236.64, 608.4 0.19 M164.64 516.77 C329.25 329.16, 492.77 141.25, 614.04 -0.2 M164.64 516.77 C267.33 400.24, 366.4 285.06, 614.04 -0.2 M169.62 517.13 C307.06 356.18, 449.32 194.16, 619.03 0.16 M169.62 517.13 C338.04 324, 503.72 134.01, 619.03 0.16 M175.27 516.74 C270.3 409.51, 363.2 304.92, 624.67 -0.24 M175.27 516.74 C352.61 311.17, 530.55 107.82, 624.67 -0.24 M180.25 517.1 C356.2 316.02, 533.1 112, 629.66 0.12 M180.25 517.1 C338.37 340.25, 495.64 160.23, 629.66 0.12 M185.9 516.7 C313.15 371.8, 439.47 226.21, 635.3 -0.27 M185.9 516.7 C286.57 406.37, 384.56 292.89, 635.3 -0.27 M190.89 517.06 C353.29 331.95, 510.4 148.07, 640.29 0.09 M190.89 517.06 C324.91 361.25, 457.66 207.92, 640.29 0.09 M196.53 516.67 C370.61 316.43, 544.93 117.08, 645.27 0.45 M196.53 516.67 C367.5 326.7, 535.38 133.77, 645.27 0.45 M201.52 517.03 C329.43 365.22, 457.56 213.36, 650.92 0.05 M201.52 517.03 C333.52 367.53, 462.12 217.03, 650.92 0.05 M207.16 516.63 C350.77 351.37, 491.82 186.39, 655.9 0.41 M207.16 516.63 C357.42 345.73, 503.16 177.83, 655.9 0.41 M212.15 516.99 C349.68 356.76, 487.27 195.23, 661.55 0.02 M212.15 516.99 C380.72 320.08, 551.58 123.96, 661.55 0.02 M217.79 516.6 C351.56 360.09, 485.95 206.33, 666.53 0.38 M217.79 516.6 C369.37 347.94, 518.56 175.62, 666.53 0.38 M222.78 516.96 C380.46 340.23, 535.74 161.13, 672.18 -0.02 M222.78 516.96 C320.43 401.47, 422.22 285.61, 672.18 -0.02 M228.42 516.56 C391.85 330.39, 550.9 146.78, 677.16 0.34 M228.42 516.56 C332.65 398.26, 438.73 277.25, 677.16 0.34 M233.41 516.92 C378.94 352.94, 525.94 185.28, 682.81 -0.05 M233.41 516.92 C346.71 386.7, 459.49 255.36, 682.81 -0.05 M239.05 516.53 C390.68 343.39, 539.06 174.13, 687.79 0.31 M239.05 516.53 C359.87 381.86, 476.39 246.69, 687.79 0.31 M244.04 516.89 C424.77 312.5, 605.21 109.16, 693.44 -0.09 M244.04 516.89 C379.82 366.99, 510.96 216.23, 693.44 -0.09 M249.68 516.5 C375.55 375.92, 500.27 227.94, 698.42 0.27 M249.68 516.5 C346.94 397.18, 450.5 278.91, 698.42 0.27 M254.67 516.86 C398.97 346.21, 548.12 177.84, 704.07 -0.12 M254.67 516.86 C410.54 332.15, 569.38 149.76, 704.07 -0.12 M260.31 516.46 C378.55 371.68, 504.17 230.67, 709.05 0.24 M260.31 516.46 C414.14 343.02, 565.45 167.57, 709.05 0.24 M265.3 516.82 C396.27 364.65, 525.13 216.06, 714.7 -0.16 M265.3 516.82 C369.99 399.8, 473.96 281.5, 714.7 -0.16 M270.94 516.43 C442.24 315.63, 614.05 117.11, 719.68 0.2 M270.94 516.43 C443.73 313.07, 620.1 111.02, 719.68 0.2 M275.93 516.79 C394.35 379.09, 511.8 242.94, 725.33 -0.19 M275.93 516.79 C415.04 355.41, 555.26 194.77, 725.33 -0.19 M280.91 517.15 C419.16 355.46, 561.53 194.24, 730.31 0.17 M280.91 517.15 C443.92 329.04, 606.06 143.3, 730.31 0.17 M286.56 516.75 C398.47 382.9, 510.47 250.07, 735.96 -0.22 M286.56 516.75 C451.67 327.02, 619.32 136.88, 735.96 -0.22 M291.54 517.11 C451.2 333.67, 613.02 148.29, 740.94 0.14 M291.54 517.11 C388.47 408.5, 483.63 298.57, 740.94 0.14 M297.19 516.72 C419.8 377.91, 541.4 237.41, 746.59 -0.26 M297.19 516.72 C466.26 323.72, 630.42 134.46, 746.59 -0.26 M302.17 517.08 C412.22 391.89, 522.92 267.42, 751.57 0.1 M302.17 517.08 C438.62 360.02, 575.58 202.24, 751.57 0.1 M307.82 516.68 C460.02 343.53, 611.18 169.91, 756.56 0.46 M307.82 516.68 C422.71 383.96, 535.78 253.37, 756.56 0.46 M312.8 517.04 C443.76 371.2, 572.34 222.85, 762.2 0.07 M312.8 517.04 C483.54 323.07, 652.3 127.65, 762.2 0.07 M318.45 516.65 C449.56 367.81, 577.99 217.31, 767.19 0.43 M318.45 516.65 C475.35 334.54, 636.42 150.17, 767.19 0.43 M323.43 517.01 C428.75 391.38, 538.92 265.06, 772.83 0.03 M323.43 517.01 C487.99 329.36, 648.78 143.39, 772.83 0.03 M329.08 516.61 C493.61 324.68, 662.48 129.27, 777.82 0.39 M329.08 516.61 C424.48 408.5, 517.22 301.56, 777.82 0.39 M334.06 516.97 C450.48 384.26, 566.86 249.7, 783.46 0 M334.06 516.97 C497.35 325.18, 661.75 134.13, 783.46 0 M339.71 516.58 C457.14 381.27, 572.08 248.56, 788.45 0.36 M339.71 516.58 C480.31 350.74, 621.14 187.63, 788.45 0.36 M344.69 516.94 C485.35 356, 625.2 194.1, 794.09 -0.04 M344.69 516.94 C487.52 354.28, 627.74 193.45, 794.09 -0.04 M350.34 516.54 C442.69 409.04, 533.01 302.9, 799.08 0.32 M350.34 516.54 C522.68 318.76, 691.34 123.69, 799.08 0.32 M355.32 516.9 C522.09 325.22, 688.13 131.16, 804.72 -0.07 M355.32 516.9 C478.49 372.6, 602.01 228.56, 804.72 -0.07 M360.97 516.51 C500.19 351.29, 641.15 191.8, 809.71 0.29 M360.97 516.51 C488.79 373.61, 614.09 228.64, 809.71 0.29 M365.95 516.87 C467.37 395.23, 573.11 272.25, 815.35 -0.11 M365.95 516.87 C522.35 338.07, 677.55 159.97, 815.35 -0.11 M371.6 516.48 C495.84 372.59, 618.78 232.92, 820.34 0.25 M371.6 516.48 C500.73 360.69, 632.87 208.86, 820.34 0.25 M376.58 516.84 C513.01 357.24, 651.64 199.96, 825.98 -0.14 M376.58 516.84 C553.68 318.08, 726.3 119.46, 825.98 -0.14 M382.23 516.44 C561.44 313.94, 741.4 110.54, 830.97 0.22 M382.23 516.44 C513.48 372.21, 642.11 224.12, 830.97 0.22 M387.21 516.8 C479.39 414.94, 569.83 310.06, 836.61 -0.17 M387.21 516.8 C496.23 390.79, 608.57 262.48, 836.61 -0.17 M392.86 516.41 C490.37 408.24, 583.14 300.96, 841.6 0.19 M392.86 516.41 C522.58 363.25, 656.14 209.82, 841.6 0.19 M397.84 516.77 C555.55 335.71, 714.01 151.62, 847.24 -0.21 M397.84 516.77 C568.55 322.21, 738.7 126.98, 847.24 -0.21 M402.83 517.13 C515.54 387.57, 628.14 260.03, 852.23 0.15 M402.83 517.13 C563.47 326.47, 728.63 137.16, 852.23 0.15 M408.47 516.73 C501.73 414, 591.52 311.25, 857.87 -0.24 M408.47 516.73 C502.56 406.92, 595.77 299.74, 857.87 -0.24 M413.46 517.09 C527.85 385.39, 645.49 252.03, 862.86 0.12 M413.46 517.09 C560.54 350.44, 702.91 186.99, 862.86 0.12 M419.1 516.7 C507.35 413.39, 597.13 308.46, 868.5 -0.28 M419.1 516.7 C574.89 335.54, 732.42 154.45, 868.5 -0.28 M424.09 517.06 C514.22 411.81, 605.69 307.7, 873.49 0.08 M424.09 517.06 C584.11 332.5, 747.72 144.73, 873.49 0.08 M429.73 516.66 C529.21 405.06, 628.77 287.08, 878.48 0.44 M429.73 516.66 C526.58 406.06, 619.11 299.17, 878.48 0.44 M434.72 517.02 C552.84 388.6, 669.05 256.55, 884.12 0.05 M434.72 517.02 C565.32 365.49, 697.5 212.79, 884.12 0.05 M440.36 516.63 C595.46 339.32, 748.41 162.96, 889.11 0.41 M440.36 516.63 C609.3 320.12, 777.24 126.57, 889.11 0.41 M445.35 516.99 C536.59 408.85, 626.85 306.14, 894.75 0.01 M445.35 516.99 C579.4 359.87, 716.1 202.81, 894.75 0.01 M450.99 516.59 C565.35 383.49, 681.23 250.27, 899.74 0.37 M450.99 516.59 C552.34 396.17, 656.18 276.12, 899.74 0.37 M455.98 516.95 C568.87 387.31, 679.03 262.82, 905.38 -0.02 M455.98 516.95 C623.83 329.08, 786.12 140.96, 905.38 -0.02 M461.62 516.56 C576.64 382.69, 696.31 247.05, 910.37 0.34 M461.62 516.56 C614.47 339.71, 769.5 161.08, 910.37 0.34 M466.61 516.92 C642.43 314.62, 817.88 112.18, 916.01 -0.06 M466.61 516.92 C573.77 395.19, 678.76 275.03, 916.01 -0.06 M472.25 516.53 C604.99 365.89, 733.12 216.02, 921 0.3 M472.25 516.53 C593.06 373.69, 713.38 234.83, 921 0.3 M477.24 516.89 C597.49 381.92, 711.81 247.42, 925.33 1.42 M477.24 516.89 C595.63 380.5, 712.12 244.93, 925.33 1.42 M482.88 516.49 C597.08 386.23, 710.49 257.38, 929.66 2.53 M482.88 516.49 C634.56 337.22, 790.6 159.57, 929.66 2.53 M487.87 516.85 C617.2 366.73, 750.53 214.84, 933.99 3.65 M487.87 516.85 C658.7 323.1, 829.94 127.49, 933.99 3.65 M493.51 516.46 C627.26 362.87, 764.66 204.38, 938.32 4.76 M493.51 516.46 C632.92 362.61, 768.54 205.14, 938.32 4.76 M498.5 516.82 C650.27 342.15, 802.92 166.38, 942.65 5.88 M498.5 516.82 C640.82 353.19, 782.29 188.82, 942.65 5.88 M504.14 516.42 C591.46 416.11, 682.97 313.51, 945.02 9.26 M504.14 516.42 C623.16 382.54, 739.34 248.06, 945.02 9.26 M509.13 516.78 C628.48 383.2, 742.49 249.5, 948.04 11.88 M509.13 516.78 C681.71 319.85, 852.86 123.8, 948.04 11.88 M514.12 517.14 C646.01 360.12, 778.97 206.09, 950.4 15.26 M514.12 517.14 C654.71 353.33, 797.3 190.45, 950.4 15.26 M519.76 516.75 C661 352.29, 803.49 188.15, 951.45 20.15 M519.76 516.75 C643 378.35, 765.04 238.62, 951.45 20.15 M524.75 517.11 C695.77 321.75, 865.54 127.07, 952.5 25.04 M524.75 517.11 C689.35 326.72, 855.2 138.06, 952.5 25.04 M530.39 516.71 C629.08 401.11, 728.84 284.81, 953.55 29.93 M530.39 516.71 C654.88 379.56, 774.68 240.43, 953.55 29.93 M535.38 517.07 C645.85 386.94, 759.39 255.77, 953.94 35.57 M535.38 517.07 C671.7 361.11, 805.23 208.39, 953.94 35.57 M541.02 516.68 C655.66 387.95, 767.07 260.93, 953.68 41.97 M541.02 516.68 C656.73 386.41, 770.87 256.42, 953.68 41.97 M546.01 517.04 C685.05 361.92, 818.55 204.95, 954.08 47.61 M546.01 517.04 C704.43 331.12, 864.45 147.16, 954.08 47.61 M551.65 516.64 C686.53 355.82, 825.63 195.78, 953.82 54.01 M551.65 516.64 C681 370.43, 807.04 226.1, 953.82 54.01 M556.64 517 C712.9 339.26, 868.71 160.74, 954.21 59.65 M556.64 517 C663.55 393.74, 769.48 272.8, 954.21 59.65 M562.28 516.61 C715.28 338.8, 867.76 163.28, 953.95 66.05 M562.28 516.61 C653.78 409.28, 748.73 299.2, 953.95 66.05 M567.27 516.97 C677.73 388.1, 789.77 259.49, 953.69 72.45 M567.27 516.97 C711.62 349.56, 855.67 184.06, 953.69 72.45 M572.91 516.58 C700.22 367.88, 826.16 218.72, 954.08 78.09 M572.91 516.58 C687.3 384.35, 803.33 251.99, 954.08 78.09 M577.9 516.94 C679.78 402.82, 776.6 291.16, 953.82 84.49 M577.9 516.94 C713.18 365.53, 847.77 212.11, 953.82 84.49 M583.54 516.54 C707.23 373.71, 832.17 229.76, 954.22 90.13 M583.54 516.54 C699.89 382.24, 818.3 248.39, 954.22 90.13 M588.53 516.9 C719.28 365.49, 854.15 212.07, 953.95 96.53 M588.53 516.9 C667.17 425.68, 747.27 332.9, 953.95 96.53 M594.17 516.51 C716.78 375.1, 841.73 230.93, 953.69 102.93 M594.17 516.51 C700.45 394.44, 806.44 272.8, 953.69 102.93 M599.16 516.87 C691.36 409.37, 786.68 303.12, 954.09 108.57 M599.16 516.87 C730.59 365.81, 861.9 213.37, 954.09 108.57 M604.8 516.47 C723.63 379.81, 844.52 244.44, 953.83 114.97 M604.8 516.47 C688.3 424.94, 769.97 330.19, 953.83 114.97 M609.79 516.83 C689.44 421.11, 771.28 327.05, 954.22 120.61 M609.79 516.83 C683.6 435.11, 753.63 352.96, 954.22 120.61 M615.43 516.44 C717.48 396.58, 823.47 278.47, 953.96 127.01 M615.43 516.44 C725.39 391.05, 835.04 264.85, 953.96 127.01 M620.42 516.8 C748.87 369.62, 875.55 224.28, 953.7 133.4 M620.42 516.8 C720.4 399.44, 820.34 284.08, 953.7 133.4 M626.06 516.4 C706.04 422.04, 787.61 329.87, 954.09 139.05 M626.06 516.4 C736.75 389.23, 846.4 264.62, 954.09 139.05 M631.05 516.76 C699.07 438.33, 764.9 362.25, 953.83 145.45 M631.05 516.76 C702.57 434.23, 777.79 349.44, 953.83 145.45 M636.04 517.12 C754.55 380.64, 871.26 245.29, 954.23 151.09 M636.04 517.12 C709.72 438.5, 780.27 357.1, 954.23 151.09 M641.68 516.73 C713.3 438.52, 781.98 358.55, 953.96 157.49 M641.68 516.73 C745.92 393.94, 851.67 273.78, 953.96 157.49 M646.67 517.09 C733.77 411.3, 824.08 308.18, 953.7 163.88 M646.67 517.09 C752.75 397.05, 858.99 275.73, 953.7 163.88 M652.31 516.69 C758.66 387.89, 867.78 263, 954.1 169.53 M652.31 516.69 C761.5 391.6, 872.93 263.35, 954.1 169.53 M657.3 517.05 C734.71 426.57, 815.26 336.45, 953.84 175.93 M657.3 517.05 C727.02 439.46, 796.26 360.04, 953.84 175.93 M662.94 516.66 C767.76 396.57, 873.35 277.53, 954.23 181.57 M662.94 516.66 C735.24 432.32, 809.79 346.43, 954.23 181.57 M667.93 517.02 C761.65 410.39, 850.84 300.17, 953.97 187.97 M667.93 517.02 C727.61 450.21, 787.1 380.24, 953.97 187.97 M673.57 516.62 C783.65 391.9, 890.1 271.94, 953.71 194.36 M673.57 516.62 C760.71 419.02, 847.71 319.23, 953.71 194.36 M678.56 516.98 C771.14 411.45, 863.18 304.43, 954.1 200.01 M678.56 516.98 C784.48 398.59, 891.7 276.46, 954.1 200.01 M684.2 516.59 C792.77 394.67, 896.65 273.71, 953.84 206.4 M684.2 516.59 C750.21 440.99, 816.71 365.09, 953.84 206.4 M689.19 516.95 C787.9 403.83, 882.78 292.14, 954.23 212.05 M689.19 516.95 C759.83 440.37, 827.02 361.2, 954.23 212.05 M694.83 516.56 C787.62 407.34, 881.83 296.04, 953.97 218.45 M694.83 516.56 C784.71 412.12, 873.32 311.46, 953.97 218.45 M699.82 516.92 C782.23 425.28, 864.4 331.8, 953.71 224.84 M699.82 516.92 C781.31 424.23, 860.62 333.02, 953.71 224.84 M705.46 516.52 C778.69 432.84, 852.06 348.83, 954.11 230.49 M705.46 516.52 C778.19 434.3, 851.57 351.86, 954.11 230.49 M710.45 516.88 C779.17 439.73, 848.17 361.27, 953.85 236.88 M710.45 516.88 C769.39 452.37, 826.43 388, 953.85 236.88 M716.09 516.49 C807.13 407.08, 899.75 297.29, 954.24 242.53 M716.09 516.49 C802.34 416.56, 884.96 321.92, 954.24 242.53 M721.08 516.85 C801.73 419.23, 888.38 324.79, 953.98 248.93 M721.08 516.85 C780.95 449.79, 841.97 379.26, 953.98 248.93 M726.72 516.45 C787.98 445.27, 848.94 373.76, 953.72 255.32 M726.72 516.45 C811.6 420.65, 898.88 321.69, 953.72 255.32 M731.71 516.81 C792.06 440.03, 858.27 369.85, 954.11 260.97 M731.71 516.81 C792.48 449.87, 851.85 381.41, 954.11 260.97 M737.35 516.42 C818.95 425.87, 899.54 331.84, 953.85 267.36 M737.35 516.42 C787.35 463.62, 834.93 409.08, 953.85 267.36 M742.34 516.78 C827.44 421.28, 906.98 329.05, 954.24 273.01 M742.34 516.78 C797.02 453.72, 853.09 389.08, 954.24 273.01 M747.32 517.14 C811.67 444.34, 873.39 371.49, 953.98 279.4 M747.32 517.14 C809.91 445.62, 873.78 373.74, 953.98 279.4 M752.97 516.74 C794.66 464.59, 837.01 416.53, 953.72 285.8 M752.97 516.74 C810.92 450.04, 869.75 381.15, 953.72 285.8 M757.95 517.1 C831.14 432.1, 896.3 352.22, 954.12 291.45 M757.95 517.1 C804.72 466.27, 850.16 411.36, 954.12 291.45 M763.6 516.71 C830.17 443.36, 891.14 367.82, 953.85 297.84 M763.6 516.71 C831.78 439.85, 898.85 363.35, 953.85 297.84 M768.58 517.07 C844.43 434.72, 915.41 352.63, 954.25 303.49 M768.58 517.07 C814.3 465.47, 858.47 416.73, 954.25 303.49 M774.23 516.67 C837.49 446.35, 894.43 377.85, 953.99 309.88 M774.23 516.67 C816.3 466.42, 863.17 414.18, 953.99 309.88 M779.21 517.03 C832.54 465.5, 874.93 410.77, 953.73 316.28 M779.21 517.03 C831.11 459.04, 882.51 401.56, 953.73 316.28 M784.86 516.64 C847.19 439.56, 915.51 366.79, 954.12 321.92 M784.86 516.64 C846.34 443.11, 909.67 372.77, 954.12 321.92 M789.84 517 C837.57 464.48, 890.56 407.05, 953.86 328.32 M789.84 517 C853.47 444.21, 913.21 375.52, 953.86 328.32 M795.49 516.61 C834.24 468.69, 878.38 420.29, 954.25 333.97 M795.49 516.61 C838.89 467.16, 881.09 420.2, 954.25 333.97 M800.48 516.97 C860.72 449.79, 920.1 376.91, 953.99 340.36 M800.48 516.97 C840.67 469.68, 880.07 424.29, 953.99 340.36 M806.12 516.57 C836.39 482.37, 864.4 440.31, 953.73 346.76 M806.12 516.57 C854.4 459.78, 905.05 403.08, 953.73 346.76 M811.11 516.93 C843.08 476.13, 877.26 438.53, 954.13 352.4 M811.11 516.93 C855.25 467.21, 896.79 418.26, 954.13 352.4 M816.75 516.54 C849.79 479.12, 887.22 438.74, 953.86 358.8 M816.75 516.54 C857.63 472.32, 897.9 421.76, 953.86 358.8 M821.74 516.9 C843.39 488.07, 874.04 458.92, 954.26 364.45 M821.74 516.9 C854.27 482.43, 885.56 445.54, 954.26 364.45 M827.38 516.5 C879.12 459.24, 927.15 401.82, 954 370.84 M827.38 516.5 C865.57 470.81, 904.46 427.5, 954 370.84 M832.37 516.86 C852.43 492.53, 878.85 457.22, 953.74 377.24 M832.37 516.86 C878.77 462.02, 928 407.83, 953.74 377.24 M838.01 516.47 C873.89 474.11, 913.31 425.68, 954.13 382.88 M838.01 516.47 C867.14 481.09, 896.98 444.12, 954.13 382.88 M843 516.83 C883.3 464.29, 929.61 415.28, 953.87 389.28 M843 516.83 C877.11 476.9, 912.75 439.05, 953.87 389.28 M848.64 516.43 C873.41 483.35, 906.64 455.32, 954.26 394.92 M848.64 516.43 C882.94 479.82, 913.73 442.16, 954.26 394.92 M853.63 516.79 C887.17 475.11, 922.42 432.09, 954 401.32 M853.63 516.79 C879.02 488.7, 904.91 457.55, 954 401.32 M858.61 517.15 C889.55 480.19, 919.33 446.76, 953.74 407.72 M858.61 517.15 C887.45 483.24, 918.13 448.71, 953.74 407.72 M864.26 516.76 C888.32 487.63, 915.35 460.94, 954.14 413.36 M864.26 516.76 C894.18 482.16, 925.82 445.41, 954.14 413.36 M869.24 517.12 C898.49 479.1, 932.91 447.04, 953.87 419.76 M869.24 517.12 C899.57 477.73, 930.14 441.84, 953.87 419.76 M874.89 516.72 C895.94 488.82, 920.67 463.2, 953.61 426.16 M874.89 516.72 C892.63 492.72, 912.37 469.69, 953.61 426.16 M879.87 517.08 C900.42 492.97, 926.65 463.06, 954.01 431.8 M879.87 517.08 C908.31 485.65, 932.51 453.89, 954.01 431.8 M885.52 516.69 C908.4 493.08, 929.65 475, 953.75 438.2 M885.52 516.69 C903.06 497.82, 922.58 476.86, 953.75 438.2 M890.5 517.05 C906.88 496, 916.93 482.6, 954.14 443.84 M890.5 517.05 C912.75 492.08, 935.29 468.02, 954.14 443.84 M896.15 516.66 C909.57 498.33, 923.05 484.93, 953.88 450.24 M896.15 516.66 C919.31 487.69, 943.37 462.04, 953.88 450.24 M901.13 517.02 C919.02 503.08, 929.54 482.92, 953.62 456.64 M901.13 517.02 C920.25 496.99, 937.35 474.28, 953.62 456.64 M906.78 516.62 C921.83 491.79, 945.63 476.03, 954.01 462.28 M906.78 516.62 C921.94 499.84, 934.84 484.38, 954.01 462.28 M911.76 516.98 C925.86 501.63, 949.47 476.43, 953.75 468.68 M911.76 516.98 C921.06 506.06, 930.17 492.31, 953.75 468.68 M917.41 516.59 C927.7 499.36, 939.06 489.9, 954.15 474.32 M917.41 516.59 C926.01 505.9, 936.22 495.08, 954.15 474.32 M922.39 516.95 C935.64 506.72, 945.29 491.36, 953.88 480.72 M922.39 516.95 C932 510.65, 938.23 502.16, 953.88 480.72 M928.69 515.8 C937.44 505.19, 951.33 491.28, 953.62 487.12 M928.69 515.8 C934.15 509.65, 938.8 503.25, 953.62 487.12 M935.65 513.89 C942.3 506.42, 945.51 507.96, 951.39 495.78 M935.65 513.89 C939.84 505.97, 944.58 501.44, 951.39 495.78" stroke="#f4fafb" stroke-width="0.5" fill="none"></path><path d="M32 0 C299.09 0.64, 561.95 -0.86, 921.33 0 M32 0 C236.2 0.85, 440.94 0.05, 921.33 0 M921.33 0 C943.64 1.05, 955.61 13.23, 953.33 32 M921.33 0 C945.37 3.19, 951.9 13, 953.33 32 M953.33 32 C953.58 183.86, 953.46 339.15, 953.33 484.67 M953.33 32 C954.8 137.63, 953.69 244.75, 953.33 484.67 M953.33 484.67 C953.28 502.99, 942.9 517.86, 921.33 516.67 M953.33 484.67 C952.3 503.22, 945.27 517.64, 921.33 516.67 M921.33 516.67 C680.25 519.89, 436.52 520.57, 32 516.67 M921.33 516.67 C644.26 510.69, 367.3 509.73, 32 516.67 M32 516.67 C11.65 517.8, -2.26 504.32, 0 484.67 M32 516.67 C10.21 514.32, -2.95 501.5, 0 484.67 M0 484.67 C2.46 341.71, 2.03 200.82, 0 32 M0 484.67 C-3.06 380.41, -3.28 277.66, 0 32 M0 32 C-1.12 11.31, 9.15 -1.32, 32 0 M0 32 C3.96 9.79, 9.25 3.07, 32 0" stroke="#05525a" stroke-width="1" fill="none"></path></g><g stroke-linecap="round" transform="translate(1200.7242365731263 10) rotate(0 476.6666666666665 258.3333333333333)"><path d="M7.86 8.16 C7.86 8.16, 7.86 8.16, 7.86 8.16 M7.86 8.16 C7.86 8.16, 7.86 8.16, 7.86 8.16 M2.35 20.59 C10.49 16.77, 13.49 7.45, 18.1 2.48 M2.35 20.59 C6.58 17.52, 8.66 10.71, 18.1 2.48 M1.43 27.75 C7.83 16.72, 16.1 12.47, 24.4 1.33 M1.43 27.75 C10.96 17.44, 17.28 6.52, 24.4 1.33 M0.52 34.9 C8.46 23.59, 20.02 13.44, 30.7 0.18 M0.52 34.9 C6.06 27.98, 14.22 19.64, 30.7 0.18 M0.26 41.3 C12.25 27.4, 15.2 19.1, 36.34 -0.21 M0.26 41.3 C14.39 25.17, 27.39 6.79, 36.34 -0.21 M-0.01 47.7 C6.26 37.77, 17.87 24.27, 41.33 0.15 M-0.01 47.7 C10.59 36.43, 19.65 26.29, 41.33 0.15 M0.39 53.34 C17.35 38.18, 27.95 22.84, 46.97 -0.25 M0.39 53.34 C13.32 40.49, 23.92 24.08, 46.97 -0.25 M0.13 59.74 C13.3 39.95, 27.88 19.69, 51.96 0.11 M0.13 59.74 C15.5 42.34, 29.85 25.86, 51.96 0.11 M0.52 65.38 C18.73 48.28, 26.53 35.69, 57.6 -0.28 M0.52 65.38 C23.53 40.19, 47.31 13.59, 57.6 -0.28 M0.26 71.78 C23.79 48.96, 36.96 23.22, 62.59 0.08 M0.26 71.78 C19.46 51.34, 36.88 29.17, 62.59 0.08 M0 78.17 C16.24 60.88, 27.66 46.92, 67.57 0.44 M0 78.17 C11.26 62.67, 25.49 46.77, 67.57 0.44 M0.39 83.82 C12.93 70.08, 32.89 48.31, 73.22 0.04 M0.39 83.82 C31.68 48.85, 58.62 17.82, 73.22 0.04 M0.13 90.22 C26.08 56.57, 54.44 24.24, 78.2 0.41 M0.13 90.22 C27.55 62.34, 53.08 34.64, 78.2 0.41 M0.53 95.86 C22.76 62.96, 52.95 35.52, 83.85 0.01 M0.53 95.86 C26.3 65.14, 54.56 37.74, 83.85 0.01 M0.26 102.26 C21.72 75.37, 47.47 49.74, 88.83 0.37 M0.26 102.26 C31.89 64.42, 63.9 29.52, 88.83 0.37 M0 108.65 C18.06 82.27, 43.75 59.14, 94.48 -0.02 M0 108.65 C37.85 68.3, 74.93 27.3, 94.48 -0.02 M0.4 114.3 C23.03 90.98, 36.52 63.57, 99.46 0.34 M0.4 114.3 C39.34 69.51, 80.94 21.68, 99.46 0.34 M0.14 120.69 C25.4 94.41, 51.81 65.65, 105.11 -0.06 M0.14 120.69 C39.58 77.57, 80.99 30.88, 105.11 -0.06 M0.53 126.34 C33.23 84.23, 73.29 39.89, 110.09 0.3 M0.53 126.34 C26.69 92.76, 58.4 61.21, 110.09 0.3 M0.27 132.74 C31.26 97.56, 50.29 71.61, 115.74 -0.09 M0.27 132.74 C24.84 102.04, 52.95 69.69, 115.74 -0.09 M0.01 139.13 C38.93 95.89, 84.48 47.83, 120.72 0.27 M0.01 139.13 C32.82 103.64, 64.43 66.09, 120.72 0.27 M0.4 144.78 C42.28 99.8, 84.15 48.91, 126.37 -0.13 M0.4 144.78 C44.44 91.52, 90.81 39.71, 126.37 -0.13 M0.14 151.17 C42.98 103.52, 90.07 50.58, 131.35 0.23 M0.14 151.17 C33.69 109.57, 68.63 69.76, 131.35 0.23 M0.54 156.82 C34.38 118.21, 60.06 86.06, 137 -0.16 M0.54 156.82 C47.99 100.68, 97.71 43.29, 137 -0.16 M0.27 163.22 C52.34 104.73, 102.92 42.94, 141.98 0.2 M0.27 163.22 C53.59 105.32, 103.18 43.69, 141.98 0.2 M0.01 169.61 C57.8 106.89, 115.2 43.57, 147.63 -0.2 M0.01 169.61 C56.63 103.62, 114.28 36.98, 147.63 -0.2 M0.41 175.26 C52.72 119.65, 98.67 61.16, 152.61 0.16 M0.41 175.26 C44.77 125.8, 87.7 74.01, 152.61 0.16 M0.15 181.65 C38.65 137.22, 78.92 91.12, 158.26 -0.23 M0.15 181.65 C50.05 126.26, 100.69 71.76, 158.26 -0.23 M0.54 187.3 C41.87 139.11, 82.56 90.69, 163.24 0.13 M0.54 187.3 C56.78 121.39, 112.5 54.52, 163.24 0.13 M0.28 193.69 C57.01 128.68, 106.94 66.26, 168.89 -0.27 M0.28 193.69 C59.26 128.86, 113.87 65.05, 168.89 -0.27 M0.02 200.09 C32.59 157.17, 68.65 113.31, 173.87 0.09 M0.02 200.09 C45.05 143.16, 92.85 87.61, 173.87 0.09 M0.41 205.74 C71.09 127.82, 134.59 51.68, 178.86 0.45 M0.41 205.74 C55.81 142, 107.82 80.46, 178.86 0.45 M0.15 212.13 C70.08 124.82, 146.1 39.27, 184.5 0.06 M0.15 212.13 C43 161.91, 86.05 111.88, 184.5 0.06 M0.55 217.78 C49.74 157.47, 105.26 96.98, 189.49 0.42 M0.55 217.78 C55.34 160.21, 104.92 99.5, 189.49 0.42 M0.28 224.17 C49.68 166.46, 99.91 109.85, 195.13 0.03 M0.28 224.17 C73.1 138.48, 144.74 54.85, 195.13 0.03 M0.02 230.57 C42.49 182.43, 82.2 132.77, 200.12 0.39 M0.02 230.57 C61.32 158.96, 122.95 88.75, 200.12 0.39 M0.42 236.22 C79.35 147.15, 158.95 55.4, 205.76 -0.01 M0.42 236.22 C57.63 173.1, 113.28 108.42, 205.76 -0.01 M0.16 242.61 C83.01 148.46, 161.39 51.36, 210.75 0.35 M0.16 242.61 C65.36 168.46, 127.96 97.03, 210.75 0.35 M-0.11 249.01 C80.68 160.37, 160.81 68.23, 216.39 -0.04 M-0.11 249.01 C68.59 170.75, 134.66 93.71, 216.39 -0.04 M0.29 254.65 C87.42 154.28, 170.33 54.99, 221.38 0.32 M0.29 254.65 C70.24 169.23, 142.62 86.6, 221.38 0.32 M0.03 261.05 C92.97 153.98, 181.84 50.91, 227.02 -0.08 M0.03 261.05 C70.39 186.1, 138.13 108.15, 227.02 -0.08 M0.42 266.69 C93.19 161.71, 187.37 56.15, 232.01 0.28 M0.42 266.69 C72.39 183.48, 143.4 101.42, 232.01 0.28 M0.16 273.09 C55.56 214.67, 108.67 148.59, 237.65 -0.11 M0.16 273.09 C57.45 207.04, 111.89 141.82, 237.65 -0.11 M-0.1 279.49 C83.24 183.5, 171.52 80.18, 242.64 0.25 M-0.1 279.49 C82.75 182.07, 168.86 84.55, 242.64 0.25 M0.29 285.13 C52.3 222.39, 107.88 158.65, 248.28 -0.15 M0.29 285.13 C89.33 188.88, 177.86 88.34, 248.28 -0.15 M0.03 291.53 C58.48 225.61, 115.52 156.49, 253.27 0.21 M0.03 291.53 C94.69 180.6, 194.38 68.09, 253.27 0.21 M0.43 297.17 C80.08 205.92, 157.98 112.48, 258.91 -0.18 M0.43 297.17 C74.6 212.15, 146.99 128.09, 258.91 -0.18 M0.17 303.57 C88.69 203.43, 180.73 97.92, 263.9 0.18 M0.17 303.57 C93.89 194.54, 188.95 85.51, 263.9 0.18 M-0.1 309.97 C66.07 231.83, 131.8 157.87, 269.54 -0.22 M-0.1 309.97 C75.34 224.03, 148.16 138.42, 269.54 -0.22 M0.3 315.61 C63.22 248.02, 125.15 173.92, 274.53 0.14 M0.3 315.61 C60.91 244.58, 121.79 174.51, 274.53 0.14 M0.04 322.01 C87.41 219.34, 176.72 115.56, 280.17 -0.25 M0.04 322.01 C111.33 197.59, 220.37 71.31, 280.17 -0.25 M0.43 327.65 C113.55 203.74, 219.78 79.73, 285.16 0.11 M0.43 327.65 C99.01 216.66, 197.83 102.95, 285.16 0.11 M0.17 334.05 C70.81 254.98, 139.94 170.78, 290.8 -0.28 M0.17 334.05 C86.82 234.17, 175.42 132.91, 290.8 -0.28 M-0.09 340.45 C92.02 235.34, 186.73 124.77, 295.79 0.08 M-0.09 340.45 C94.14 234.62, 183.83 128.34, 295.79 0.08 M0.3 346.09 C96.86 233.6, 193.94 119.71, 300.78 0.44 M0.3 346.09 C87.91 244.06, 177.67 140.4, 300.78 0.44 M0.04 352.49 C97.15 243, 193.22 130.61, 306.42 0.04 M0.04 352.49 C88.69 247.02, 181.83 142.02, 306.42 0.04 M0.44 358.13 C73.01 275.67, 140.59 196.59, 311.41 0.4 M0.44 358.13 C84.81 257.9, 171.26 157.82, 311.41 0.4 M0.18 364.53 C82.34 276.74, 159.6 184.26, 317.05 0.01 M0.18 364.53 C106.09 246.92, 210.96 125.1, 317.05 0.01 M-0.09 370.93 C72.6 290.99, 141.73 209.04, 322.04 0.37 M-0.09 370.93 C110.51 240.95, 222.99 112.05, 322.04 0.37 M0.31 376.57 C124.48 236.91, 249.97 94.69, 327.68 -0.03 M0.31 376.57 C68.08 295.95, 136.87 215.97, 327.68 -0.03 M0.05 382.97 C119.04 245.05, 238.55 106.77, 332.67 0.33 M0.05 382.97 C75.62 295.32, 154.65 204.86, 332.67 0.33 M0.44 388.61 C116.4 249.9, 235.3 112.2, 338.31 -0.06 M0.44 388.61 C126.57 238.48, 254.08 92.36, 338.31 -0.06 M0.18 395.01 C97.36 278.63, 195.59 167.02, 343.3 0.3 M0.18 395.01 C92.58 285.65, 187.27 176.73, 343.3 0.3 M-0.08 401.41 C70.02 320.39, 142.44 240.04, 348.94 -0.1 M-0.08 401.41 C93.35 292.3, 188.06 183.89, 348.94 -0.1 M0.31 407.05 C85.59 312.51, 169.34 216.21, 353.93 0.26 M0.31 407.05 C75.04 315.88, 152.46 227.05, 353.93 0.26 M0.05 413.45 C127.2 260.2, 258.65 111.15, 359.57 -0.13 M0.05 413.45 C125.03 273.84, 246.97 133.06, 359.57 -0.13 M0.45 419.09 C81.21 329.35, 161.54 239.72, 364.56 0.23 M0.45 419.09 C84.65 324.9, 166.29 231.15, 364.56 0.23 M0.18 425.49 C87.34 326.55, 175.82 226.44, 370.2 -0.17 M0.18 425.49 C93.32 315.01, 189.02 205.29, 370.2 -0.17 M-0.08 431.89 C89.38 326.45, 177.79 222.78, 375.19 0.19 M-0.08 431.89 C97.76 318.36, 196.21 203.92, 375.19 0.19 M0.32 437.53 C81.1 340.43, 164.59 247, 380.83 -0.2 M0.32 437.53 C118.49 302.26, 235.03 168.78, 380.83 -0.2 M0.06 443.93 C116.38 317, 226.16 188.28, 385.82 0.16 M0.06 443.93 C124.55 297.88, 251.55 152.52, 385.82 0.16 M0.45 449.57 C114.51 316.97, 229.69 184.82, 391.46 -0.24 M0.45 449.57 C145.22 281.18, 290.49 114.84, 391.46 -0.24 M0.19 455.97 C139.95 294.89, 281.29 132.67, 396.45 0.12 M0.19 455.97 C86.07 358.93, 170.08 261.98, 396.45 0.12 M-0.07 462.37 C97.31 348.97, 200.13 234.63, 402.09 -0.27 M-0.07 462.37 C146.87 290.76, 293.46 122.55, 402.09 -0.27 M0.32 468.01 C157.05 281.7, 321.38 96.66, 407.08 0.09 M0.32 468.01 C129.93 314.81, 263.04 163.26, 407.08 0.09 M0.06 474.41 C100.08 367.67, 192.89 257.58, 412.07 0.45 M0.06 474.41 C165.29 285.07, 328.36 95.84, 412.07 0.45 M0.46 480.05 C157.74 300.77, 311.12 120.74, 417.71 0.06 M0.46 480.05 C128.09 338.09, 251.52 193.53, 417.71 0.06 M0.19 486.45 C169.87 291.06, 339.05 98.8, 422.7 0.42 M0.19 486.45 C85.69 388.43, 171.94 288.29, 422.7 0.42 M1.25 491.34 C96.91 383.81, 191.79 275.06, 428.34 0.02 M1.25 491.34 C156.27 310.67, 311.1 132.34, 428.34 0.02 M1.64 496.98 C118.64 356.98, 236.18 219.17, 433.33 0.38 M1.64 496.98 C141.22 337.21, 281.65 175.5, 433.33 0.38 M4 500.36 C124.61 362.31, 244.54 224.58, 438.97 -0.01 M4 500.36 C161.18 316.15, 320.21 132.38, 438.97 -0.01 M6.37 503.74 C179.83 303, 353.09 101.92, 443.96 0.35 M6.37 503.74 C146.35 347.45, 284.29 188.61, 443.96 0.35 M8.73 507.12 C119.72 376.34, 228.69 248.62, 449.6 -0.05 M8.73 507.12 C170.76 315.91, 334.36 127.65, 449.6 -0.05 M11.09 510.5 C125.81 377.78, 245.01 243.06, 454.59 0.31 M11.09 510.5 C163.27 336.25, 315.11 161.56, 454.59 0.31 M14.11 513.12 C128.69 383.11, 243.34 252.9, 460.23 -0.08 M14.11 513.12 C122.48 385.36, 235.6 254.97, 460.23 -0.08 M18.44 514.24 C190.19 317.77, 361.51 122.21, 465.22 0.28 M18.44 514.24 C191.32 314.26, 364.5 116.17, 465.22 0.28 M22.77 515.35 C183.64 328.17, 349.4 136.8, 470.86 -0.12 M22.77 515.35 C158.47 362.48, 291.35 210.41, 470.86 -0.12 M27.76 515.71 C131.69 392.36, 236.8 272.44, 475.85 0.24 M27.76 515.71 C138.75 392.45, 246.63 269.04, 475.85 0.24 M32.09 516.82 C165.26 366.77, 291.75 220.89, 481.49 -0.15 M32.09 516.82 C211.28 312.86, 389.31 106.98, 481.49 -0.15 M37.73 516.43 C168.03 364.77, 301.25 214.02, 486.48 0.21 M37.73 516.43 C174.86 355.16, 311.34 197.48, 486.48 0.21 M42.72 516.79 C163.6 384.03, 283.71 247.48, 492.12 -0.19 M42.72 516.79 C162.08 376.67, 284.15 236.53, 492.12 -0.19 M47.71 517.15 C145.26 402.55, 243.42 290.05, 497.11 0.17 M47.71 517.15 C138.62 413.18, 231.57 306.46, 497.11 0.17 M53.35 516.76 C217.9 330.64, 380.57 142.63, 502.75 -0.22 M53.35 516.76 C161.47 392.14, 269.56 268.27, 502.75 -0.22 M58.34 517.12 C172.2 382.94, 290.5 247.44, 507.74 0.14 M58.34 517.12 C223.21 331.76, 387.44 142.86, 507.74 0.14 M63.98 516.72 C161.43 401.8, 261.82 287.53, 513.38 -0.25 M63.98 516.72 C170.7 390, 278.52 266.32, 513.38 -0.25 M68.97 517.08 C187.13 387.25, 301.45 256.28, 518.37 0.11 M68.97 517.08 C172.8 399.23, 274.8 280.22, 518.37 0.11 M74.61 516.69 C190.5 378.86, 310.91 242.59, 523.35 0.47 M74.61 516.69 C171.84 406.32, 268.72 293.79, 523.35 0.47 M79.6 517.05 C180.17 399.57, 280.76 283.17, 529 0.07 M79.6 517.05 C190.66 389.22, 303.38 258.94, 529 0.07 M85.24 516.65 C231.38 351.52, 376.08 183.05, 533.98 0.43 M85.24 516.65 C234.95 341.8, 386.52 166.61, 533.98 0.43 M90.23 517.01 C259.84 317.71, 432.32 121.06, 539.63 0.04 M90.23 517.01 C224.72 358.73, 358.76 204.93, 539.63 0.04 M95.87 516.62 C267.7 314.9, 443.55 115.59, 544.61 0.4 M95.87 516.62 C266.04 327.7, 433.41 136.63, 544.61 0.4 M100.86 516.98 C242.5 353.18, 383.08 190.05, 550.26 0 M100.86 516.98 C210.8 389.93, 324.83 259.61, 550.26 0 M106.5 516.58 C223.31 382.71, 338.09 249.4, 555.24 0.36 M106.5 516.58 C242.24 356.34, 379.17 198.87, 555.24 0.36 M111.49 516.94 C215.2 395.63, 317.02 278.27, 560.89 -0.03 M111.49 516.94 C198.78 414.01, 290.25 308.38, 560.89 -0.03 M117.13 516.55 C257.88 352.86, 396.8 190.56, 565.87 0.33 M117.13 516.55 C267.91 344.3, 420.92 169.31, 565.87 0.33 M122.12 516.91 C243.81 377.37, 368.99 232.58, 571.52 -0.07 M122.12 516.91 C236.3 384.14, 351.83 250.51, 571.52 -0.07 M127.76 516.51 C270.61 353.22, 414.99 188.17, 576.5 0.29 M127.76 516.51 C252.35 373.51, 378.88 227.76, 576.5 0.29 M132.75 516.87 C238.4 394.7, 342.24 273.86, 582.15 -0.1 M132.75 516.87 C285.57 347.66, 435.11 174.82, 582.15 -0.1 M138.39 516.48 C237.56 397.61, 336.23 283.6, 587.14 0.26 M138.39 516.48 C302.1 332.6, 463.59 147.72, 587.14 0.26 M143.38 516.84 C254.85 396.56, 366.37 268.9, 592.78 -0.14 M143.38 516.84 C308.14 331.51, 470.57 146.44, 592.78 -0.14 M149.02 516.45 C317.17 320.8, 485.9 126.39, 597.77 0.22 M149.02 516.45 C240.52 407.52, 333.97 300.14, 597.77 0.22 M154.01 516.81 C259.65 392.44, 366.87 267.75, 603.41 -0.17 M154.01 516.81 C281.47 376.62, 407.04 231.64, 603.41 -0.17 M159.65 516.41 C296.03 356.47, 433.77 197.22, 608.4 0.19 M159.65 516.41 C279.16 377.2, 401.74 235.91, 608.4 0.19 M164.64 516.77 C321.6 341.53, 475.06 163.54, 614.04 -0.2 M164.64 516.77 C274.16 392.91, 384.76 265.41, 614.04 -0.2 M169.62 517.13 C315.23 342.92, 467.29 171.38, 619.03 0.16 M169.62 517.13 C267.8 404.22, 365.22 291.12, 619.03 0.16 M175.27 516.74 C299.04 373.35, 419.95 233.05, 624.67 -0.24 M175.27 516.74 C277.33 397.27, 379.05 280.27, 624.67 -0.24 M180.25 517.1 C341.37 337.3, 500.87 153.53, 629.66 0.12 M180.25 517.1 C323.28 353.51, 467.46 188.46, 629.66 0.12 M185.9 516.7 C333.73 353.09, 478.06 185, 635.3 -0.27 M185.9 516.7 C275.09 414.19, 367.02 309.85, 635.3 -0.27 M190.89 517.06 C307.56 383.53, 426.39 247.28, 640.29 0.09 M190.89 517.06 C310.49 385.4, 426.52 252.25, 640.29 0.09 M196.53 516.67 C364.96 321.4, 531.37 126.67, 645.27 0.45 M196.53 516.67 C358.67 327.83, 521.79 139.48, 645.27 0.45 M201.52 517.03 C357.46 336.1, 510.62 160.32, 650.92 0.05 M201.52 517.03 C349.11 343.46, 498.36 172.05, 650.92 0.05 M207.16 516.63 C345.27 355.88, 486.3 198.28, 655.9 0.41 M207.16 516.63 C353.26 349.67, 496.73 184.66, 655.9 0.41 M212.15 516.99 C326.08 383.18, 442.83 250.7, 661.55 0.02 M212.15 516.99 C329.94 385.85, 445.99 252.48, 661.55 0.02 M217.79 516.6 C384.91 320.74, 557.79 124.18, 666.53 0.38 M217.79 516.6 C345.61 370.25, 474.84 222.64, 666.53 0.38 M222.78 516.96 C342.05 378.3, 460.28 241.28, 672.18 -0.02 M222.78 516.96 C387.93 332.13, 548.66 146.14, 672.18 -0.02 M228.42 516.56 C337.56 389.98, 445.58 264.07, 677.16 0.34 M228.42 516.56 C355.4 365.28, 484.88 215.62, 677.16 0.34 M233.41 516.92 C321.57 413.29, 412.09 309.66, 682.81 -0.05 M233.41 516.92 C401.13 323.61, 566.28 134.32, 682.81 -0.05 M239.05 516.53 C381.98 344.91, 527.85 175.2, 687.79 0.31 M239.05 516.53 C405.14 325.17, 573.63 130.92, 687.79 0.31 M244.04 516.89 C381.39 361.49, 518.83 208.25, 693.44 -0.09 M244.04 516.89 C345.07 397.81, 448.56 278.24, 693.44 -0.09 M249.68 516.5 C363.2 383.33, 481.27 247.57, 698.42 0.27 M249.68 516.5 C428.54 312.06, 608.52 105.91, 698.42 0.27 M254.67 516.86 C422.66 320.94, 593.72 124.19, 704.07 -0.12 M254.67 516.86 C394.45 352.25, 537.74 189.08, 704.07 -0.12 M260.31 516.46 C373.04 385.63, 483.34 256.88, 709.05 0.24 M260.31 516.46 C358.7 398.84, 458.79 282.3, 709.05 0.24 M265.3 516.82 C370.49 392.4, 481.09 266.63, 714.7 -0.16 M265.3 516.82 C441.92 309.43, 618.78 106.7, 714.7 -0.16 M270.94 516.43 C398.05 366.89, 530.11 213.62, 719.68 0.2 M270.94 516.43 C422.36 340.25, 573.38 165.87, 719.68 0.2 M275.93 516.79 C403.55 373.95, 526.89 231.9, 725.33 -0.19 M275.93 516.79 C388.07 388.21, 499.81 259.28, 725.33 -0.19 M280.91 517.15 C456.04 317.44, 627.54 119.28, 730.31 0.17 M280.91 517.15 C377.99 401.07, 478.76 285.2, 730.31 0.17 M286.56 516.75 C412.12 375.79, 532.61 235.47, 735.96 -0.22 M286.56 516.75 C410.73 372.88, 538.27 226.98, 735.96 -0.22 M291.54 517.11 C416.17 368.16, 543.18 223.37, 740.94 0.14 M291.54 517.11 C467.12 313.97, 643.29 111.3, 740.94 0.14 M297.19 516.72 C473.15 316.01, 644.51 116.42, 746.59 -0.26 M297.19 516.72 C428.95 358.3, 563.97 202.65, 746.59 -0.26 M302.17 517.08 C464.08 333.65, 625.67 148.25, 751.57 0.1 M302.17 517.08 C466.68 330.38, 627.69 145.2, 751.57 0.1 M307.82 516.68 C479.46 322.5, 648.77 127.55, 756.56 0.46 M307.82 516.68 C459.33 345.35, 609.16 172.34, 756.56 0.46 M312.8 517.04 C472.69 327.3, 635.5 141.57, 762.2 0.07 M312.8 517.04 C426.52 384.24, 540.62 252.44, 762.2 0.07 M318.45 516.65 C490.21 319.03, 663.13 122.74, 767.19 0.43 M318.45 516.65 C415.37 407.47, 511.46 295.59, 767.19 0.43 M323.43 517.01 C421.82 404.94, 524.31 290.09, 772.83 0.03 M323.43 517.01 C422.25 402.68, 520.54 288.5, 772.83 0.03 M329.08 516.61 C479.5 339.48, 633.7 163.89, 777.82 0.39 M329.08 516.61 C506.8 309.49, 683.8 106.19, 777.82 0.39 M334.06 516.97 C451.77 379.22, 571.95 240.24, 783.46 0 M334.06 516.97 C425.9 409.41, 521.24 299.15, 783.46 0 M339.71 516.58 C499.1 328.88, 662.25 139.71, 788.45 0.36 M339.71 516.58 C485.95 350.13, 633.92 179.79, 788.45 0.36 M344.69 516.94 C434.19 412.42, 523.99 307.93, 794.09 -0.04 M344.69 516.94 C523.55 309.16, 702.89 102.94, 794.09 -0.04 M350.34 516.54 C511.51 335.02, 672.31 154.6, 799.08 0.32 M350.34 516.54 C480.01 366.05, 613.85 213.75, 799.08 0.32 M355.32 516.9 C502.58 344.16, 651.87 169.93, 804.72 -0.07 M355.32 516.9 C514.49 333.18, 673.2 148.67, 804.72 -0.07 M360.97 516.51 C453.58 407.61, 546.59 302.14, 809.71 0.29 M360.97 516.51 C530.83 318.3, 701.36 120.21, 809.71 0.29 M365.95 516.87 C523.14 336.58, 674.84 161.3, 815.35 -0.11 M365.95 516.87 C495.25 374.15, 620.43 229.92, 815.35 -0.11 M371.6 516.48 C547.06 312.47, 725.89 107.91, 820.34 0.25 M371.6 516.48 C496.95 368.39, 623.4 222.99, 820.34 0.25 M376.58 516.84 C507.87 363.7, 641.73 209.53, 825.98 -0.14 M376.58 516.84 C546.82 323.57, 714.89 130.98, 825.98 -0.14 M382.23 516.44 C475.7 416.07, 565.73 314.48, 830.97 0.22 M382.23 516.44 C523.64 353.34, 663.71 192.45, 830.97 0.22 M387.21 516.8 C504.19 375.9, 624.76 237.69, 836.61 -0.17 M387.21 516.8 C501.51 383.45, 615.79 252.06, 836.61 -0.17 M392.86 516.41 C514.36 376.04, 632.17 242.51, 841.6 0.19 M392.86 516.41 C566.18 312.22, 742.12 110.64, 841.6 0.19 M397.84 516.77 C532 364.64, 666.2 209.98, 847.24 -0.21 M397.84 516.77 C558.78 331.45, 717.84 148.91, 847.24 -0.21 M402.83 517.13 C502.46 398.25, 608.02 280.22, 852.23 0.15 M402.83 517.13 C518.8 382.72, 633.51 250.02, 852.23 0.15 M408.47 516.73 C512.14 400.31, 613.78 282.64, 857.87 -0.24 M408.47 516.73 C544.88 354.39, 685.41 193.58, 857.87 -0.24 M413.46 517.09 C560.85 344.64, 711.19 172.23, 862.86 0.12 M413.46 517.09 C527.69 382.72, 643.82 249.21, 862.86 0.12 M419.1 516.7 C539.32 377.99, 660.03 239.41, 868.5 -0.28 M419.1 516.7 C591.34 318.08, 765.02 118.88, 868.5 -0.28 M424.09 517.06 C595.28 320.97, 769.25 122.84, 873.49 0.08 M424.09 517.06 C582.32 328.98, 742.54 143.56, 873.49 0.08 M429.73 516.66 C538.9 391.29, 649.01 263.24, 878.48 0.44 M429.73 516.66 C537.9 390.32, 645.65 265.06, 878.48 0.44 M434.72 517.02 C610.59 314.22, 786.56 114.4, 884.12 0.05 M434.72 517.02 C578.81 347.99, 726.14 178.49, 884.12 0.05 M440.36 516.63 C597.18 334.82, 750.64 159.66, 889.11 0.41 M440.36 516.63 C598.54 332.41, 759.21 145.43, 889.11 0.41 M445.35 516.99 C601.16 338.86, 757.81 160.01, 894.75 0.01 M445.35 516.99 C607.37 331.84, 767.31 148.66, 894.75 0.01 M450.99 516.59 C613.09 333.05, 774.65 148.84, 899.74 0.37 M450.99 516.59 C553.57 394.44, 658.41 274.37, 899.74 0.37 M455.98 516.95 C554.9 399.29, 655.99 281.98, 905.38 -0.02 M455.98 516.95 C564.47 394.98, 670.87 272.95, 905.38 -0.02 M461.62 516.56 C574.16 382.52, 690.83 248.46, 910.37 0.34 M461.62 516.56 C623.41 331.94, 785.9 143.91, 910.37 0.34 M466.61 516.92 C555.67 412.8, 647.09 308.97, 916.01 -0.06 M466.61 516.92 C640.64 316.51, 814.19 116.64, 916.01 -0.06 M472.25 516.53 C566.87 408.8, 661.73 301.97, 921 0.3 M472.25 516.53 C597.46 373.93, 719.75 234.18, 921 0.3 M477.24 516.89 C577.87 397.56, 679.1 280.7, 925.33 1.42 M477.24 516.89 C577.73 398.77, 678.62 283.98, 925.33 1.42 M482.88 516.49 C638.07 336.17, 797.52 152.46, 929.66 2.53 M482.88 516.49 C608.02 367.81, 736.99 220.07, 929.66 2.53 M487.87 516.85 C596.79 394.73, 702 272.32, 933.99 3.65 M487.87 516.85 C662.74 318.65, 837.13 120.54, 933.99 3.65 M493.51 516.46 C592.51 397.62, 696.47 278.52, 938.32 4.76 M493.51 516.46 C649.4 334.95, 805.22 154.29, 938.32 4.76 M498.5 516.82 C666.51 324.81, 831.49 132.45, 942.65 5.88 M498.5 516.82 C644.45 348.8, 789.17 183, 942.65 5.88 M504.14 516.42 C659.66 330.13, 821.35 144.05, 945.02 9.26 M504.14 516.42 C598.08 406.92, 693.71 296.05, 945.02 9.26 M509.13 516.78 C660.72 343.14, 811.81 169.78, 948.04 11.88 M509.13 516.78 C637.91 360.65, 770.83 208.31, 948.04 11.88 M514.12 517.14 C630.46 388.58, 744.35 256.83, 950.4 15.26 M514.12 517.14 C625.75 391.21, 737.83 262.22, 950.4 15.26 M519.76 516.75 C634.6 388.22, 743.78 261.91, 951.45 20.15 M519.76 516.75 C688.94 325.5, 855.48 133.05, 951.45 20.15 M524.75 517.11 C617.71 408.19, 713.43 298.75, 952.5 25.04 M524.75 517.11 C630.39 397.36, 736.29 275.57, 952.5 25.04 M530.39 516.71 C699.4 321.43, 867.99 130.03, 953.55 29.93 M530.39 516.71 C647.58 388.78, 759.88 258.65, 953.55 29.93 M535.38 517.07 C671.65 357.74, 811.84 198.66, 953.94 35.57 M535.38 517.07 C698.62 330.82, 858.67 146.97, 953.94 35.57 M541.02 516.68 C642.82 396.36, 747.8 274.22, 953.68 41.97 M541.02 516.68 C638.7 404.12, 738.33 289.15, 953.68 41.97 M546.01 517.04 C657.47 388.03, 764.22 263.87, 954.08 47.61 M546.01 517.04 C652.75 393.34, 760.25 269.36, 954.08 47.61 M551.65 516.64 C673.86 381.79, 790.27 246.73, 953.82 54.01 M551.65 516.64 C644.91 410.28, 734.34 305.7, 953.82 54.01 M556.64 517 C665.24 388.56, 777.27 258.76, 954.21 59.65 M556.64 517 C680.23 374.88, 803.12 232.67, 954.21 59.65 M562.28 516.61 C701.98 352.11, 846.11 188.52, 953.95 66.05 M562.28 516.61 C695.77 364.32, 826.15 213.41, 953.95 66.05 M567.27 516.97 C657.63 416.19, 746.44 315.07, 953.69 72.45 M567.27 516.97 C704.71 357.82, 841.66 200.04, 953.69 72.45 M572.91 516.58 C691.7 380.38, 809.63 244.07, 954.08 78.09 M572.91 516.58 C691.14 382.32, 809.46 245.89, 954.08 78.09 M577.9 516.94 C707.26 365.79, 836.21 217.33, 953.82 84.49 M577.9 516.94 C666.28 412.77, 754.54 309.95, 953.82 84.49 M583.54 516.54 C718.01 360.71, 851.88 202.87, 954.22 90.13 M583.54 516.54 C697.92 388.87, 807.72 261.43, 954.22 90.13 M588.53 516.9 C679.77 410.72, 769.76 304.43, 953.95 96.53 M588.53 516.9 C667.4 427.83, 744.33 339.65, 953.95 96.53 M594.17 516.51 C718.93 375.7, 842.13 234.69, 953.69 102.93 M594.17 516.51 C689.13 407.13, 784.62 298.73, 953.69 102.93 M599.16 516.87 C722.95 369.62, 851.19 223.85, 954.09 108.57 M599.16 516.87 C723.38 378.27, 846.17 235.82, 954.09 108.57 M604.8 516.47 C688.76 416.92, 773.49 320.43, 953.83 114.97 M604.8 516.47 C736.3 367.49, 867.48 215.89, 953.83 114.97 M609.79 516.83 C699.89 409.47, 793.13 300.33, 954.22 120.61 M609.79 516.83 C722.3 389.84, 833.26 263.62, 954.22 120.61 M615.43 516.44 C704.34 410.79, 793.75 310.28, 953.96 127.01 M615.43 516.44 C691.17 427.81, 766.74 339.48, 953.96 127.01 M620.42 516.8 C740.34 376.98, 860.94 239.14, 953.7 133.4 M620.42 516.8 C693.8 426.52, 769.84 339.85, 953.7 133.4 M626.06 516.4 C754.63 372.05, 878.89 228.72, 954.09 139.05 M626.06 516.4 C694.74 438.59, 761.34 360.34, 954.09 139.05 M631.05 516.76 C699.05 438.32, 766.72 359.37, 953.83 145.45 M631.05 516.76 C753.28 377.12, 874.33 239.2, 953.83 145.45 M636.04 517.12 C755.35 381.94, 874.99 249.69, 954.23 151.09 M636.04 517.12 C738.88 393.23, 843.11 272.75, 954.23 151.09 M641.68 516.73 C762.22 381.24, 883.32 242.88, 953.96 157.49 M641.68 516.73 C727.58 421.35, 814.04 322.16, 953.96 157.49 M646.67 517.09 C761.2 384.6, 875.08 249.18, 953.7 163.88 M646.67 517.09 C715.64 440.91, 783.87 361.91, 953.7 163.88 M652.31 516.69 C718.2 440.94, 786.34 363.72, 954.1 169.53 M652.31 516.69 C726.42 429.54, 804.64 339.51, 954.1 169.53 M657.3 517.05 C759.47 400.01, 860.31 281.88, 953.84 175.93 M657.3 517.05 C752.1 408.96, 848.63 299.23, 953.84 175.93 M662.94 516.66 C739.79 430.58, 815.5 340.86, 954.23 181.57 M662.94 516.66 C738.32 428.2, 817.48 338.99, 954.23 181.57 M667.93 517.02 C723.66 451.21, 782.53 383.37, 953.97 187.97 M667.93 517.02 C749.21 430.37, 827.93 339.46, 953.97 187.97 M673.57 516.62 C736.52 440.54, 804.94 366.69, 953.71 194.36 M673.57 516.62 C749.68 431.63, 823.94 347.13, 953.71 194.36 M678.56 516.98 C753.08 427.5, 824.42 343.64, 954.1 200.01 M678.56 516.98 C772.27 411.47, 866.01 305.35, 954.1 200.01 M684.2 516.59 C752.39 442.93, 815.76 368.89, 953.84 206.4 M684.2 516.59 C743.35 453.09, 799.56 388.52, 953.84 206.4 M689.19 516.95 C753.47 435.59, 820.31 359.86, 954.23 212.05 M689.19 516.95 C790.85 395.14, 896.07 276.74, 954.23 212.05 M694.83 516.56 C792.15 401.74, 894.84 284.45, 953.97 218.45 M694.83 516.56 C767.39 433.01, 841.11 351.11, 953.97 218.45 M699.82 516.92 C761.15 445.89, 820.62 377.91, 953.71 224.84 M699.82 516.92 C783.21 420.08, 863.67 327.97, 953.71 224.84 M705.46 516.52 C789.32 414.64, 876.49 316.47, 954.11 230.49 M705.46 516.52 C773.33 439.76, 840.4 361.04, 954.11 230.49 M710.45 516.88 C787.92 433.21, 861.98 346.84, 953.85 236.88 M710.45 516.88 C762.39 457.49, 815.6 395.5, 953.85 236.88 M716.09 516.49 C764.98 460.34, 809.91 404.55, 954.24 242.53 M716.09 516.49 C810.71 406.91, 903.55 300.48, 954.24 242.53 M721.08 516.85 C798.98 426.02, 877.05 340.32, 953.98 248.93 M721.08 516.85 C769.59 463.87, 815.45 410.82, 953.98 248.93 M726.72 516.45 C776.69 458.84, 826.54 402.81, 953.72 255.32 M726.72 516.45 C782.59 449.73, 840.77 382.94, 953.72 255.32 M731.71 516.81 C810.94 421.46, 892.18 331.16, 954.11 260.97 M731.71 516.81 C816.72 417.58, 903.24 319.42, 954.11 260.97 M737.35 516.42 C786.95 453.41, 837.3 399.44, 953.85 267.36 M737.35 516.42 C801.16 439.59, 864.09 365.68, 953.85 267.36 M742.34 516.78 C796.47 460.23, 847.35 399.85, 954.24 273.01 M742.34 516.78 C814.63 436.88, 883.16 357.86, 954.24 273.01 M747.32 517.14 C809.93 450.38, 869.92 382.98, 953.98 279.4 M747.32 517.14 C814.95 431.99, 887.55 348.56, 953.98 279.4 M752.97 516.74 C835.67 427.59, 914.88 333.91, 953.72 285.8 M752.97 516.74 C822.08 436.02, 892.83 353.77, 953.72 285.8 M757.95 517.1 C794.38 474.14, 838.37 426.28, 954.12 291.45 M757.95 517.1 C814.75 455.53, 867.75 391.77, 954.12 291.45 M763.6 516.71 C811.13 462.48, 859.3 411.88, 953.85 297.84 M763.6 516.71 C811.14 467.64, 854.27 418.67, 953.85 297.84 M768.58 517.07 C808.89 470.92, 844.25 427.2, 954.25 303.49 M768.58 517.07 C831.9 442.05, 896.55 371.74, 954.25 303.49 M774.23 516.67 C848.08 436.87, 913.08 353.57, 953.99 309.88 M774.23 516.67 C833.91 446.99, 891.83 377.26, 953.99 309.88 M779.21 517.03 C827.45 463.33, 878.25 407.28, 953.73 316.28 M779.21 517.03 C818.97 474.42, 857.84 429.67, 953.73 316.28 M784.86 516.64 C823.33 469.04, 860.46 426.46, 954.12 321.92 M784.86 516.64 C827.07 465.9, 872.25 416.86, 954.12 321.92 M789.84 517 C853.01 446.03, 915.48 374.3, 953.86 328.32 M789.84 517 C824.83 475.41, 858.36 435.85, 953.86 328.32 M795.49 516.61 C846.11 456.26, 901.68 393.74, 954.25 333.97 M795.49 516.61 C854.14 445.01, 916.53 372.87, 954.25 333.97 M800.48 516.97 C856.95 457.94, 904.33 391.74, 953.99 340.36 M800.48 516.97 C838.04 480.48, 869.27 441.19, 953.99 340.36 M806.12 516.57 C850.99 466.29, 893.01 415.09, 953.73 346.76 M806.12 516.57 C854.86 460.65, 903.72 403.15, 953.73 346.76 M811.11 516.93 C849.58 472.24, 892.12 421.91, 954.13 352.4 M811.11 516.93 C863.94 455.98, 913.27 397.31, 954.13 352.4 M816.75 516.54 C848.4 480.29, 872.74 449.97, 953.86 358.8 M816.75 516.54 C863.65 461.87, 909.46 408.49, 953.86 358.8 M821.74 516.9 C864.69 462.42, 913.59 404.01, 954.26 364.45 M821.74 516.9 C871.93 462.57, 920.94 404.69, 954.26 364.45 M827.38 516.5 C861.32 477.11, 897.5 429.95, 954 370.84 M827.38 516.5 C853.4 483.35, 881.9 449.89, 954 370.84 M832.37 516.86 C874.43 472.81, 912.13 426.64, 953.74 377.24 M832.37 516.86 C880.89 463.25, 926.47 409.36, 953.74 377.24 M838.01 516.47 C864.19 481.56, 894.34 452.64, 954.13 382.88 M838.01 516.47 C867.73 485.66, 894.39 455.35, 954.13 382.88 M843 516.83 C870.91 479.84, 899.88 447.99, 953.87 389.28 M843 516.83 C880.22 473.74, 919.21 426.12, 953.87 389.28 M848.64 516.43 C885.31 475.56, 922.27 435.42, 954.26 394.92 M848.64 516.43 C874.41 486.42, 900.96 456.98, 954.26 394.92 M853.63 516.79 C893.08 477.8, 928.51 435.75, 954 401.32 M853.63 516.79 C878.45 488.43, 902.58 460.63, 954 401.32 M858.61 517.15 C893.57 479.98, 926.13 440.29, 953.74 407.72 M858.61 517.15 C891.04 483.1, 919.57 448.79, 953.74 407.72 M864.26 516.76 C887.18 494.76, 907.45 471.36, 954.14 413.36 M864.26 516.76 C885.7 491.14, 906.29 464.35, 954.14 413.36 M869.24 517.12 C897.2 485.25, 927.3 454.79, 953.87 419.76 M869.24 517.12 C899.8 484.51, 925.81 453.93, 953.87 419.76 M874.89 516.72 C909.62 484.71, 939.23 444.04, 953.61 426.16 M874.89 516.72 C903.48 484, 928.75 453.13, 953.61 426.16 M879.87 517.08 C907.42 486.22, 937.39 452.43, 954.01 431.8 M879.87 517.08 C891.7 499, 909.84 480.55, 954.01 431.8 M885.52 516.69 C910.16 492.03, 930.37 468.15, 953.75 438.2 M885.52 516.69 C912.16 485.95, 935.33 461.34, 953.75 438.2 M890.5 517.05 C911.08 490.53, 934.73 470.86, 954.14 443.84 M890.5 517.05 C903.73 500.39, 922.24 479.15, 954.14 443.84 M896.15 516.66 C912.17 496.49, 928.28 476.11, 953.88 450.24 M896.15 516.66 C913.02 497.5, 932.29 477.95, 953.88 450.24 M901.13 517.02 C911.7 497.18, 929.74 481.42, 953.62 456.64 M901.13 517.02 C919 495.16, 937.88 471.87, 953.62 456.64 M906.78 516.62 C922.03 496.35, 934.49 482.78, 954.01 462.28 M906.78 516.62 C925.52 496.88, 941.51 474.74, 954.01 462.28 M911.76 516.98 C922.77 510, 932.51 494.93, 953.75 468.68 M911.76 516.98 C923.28 502.87, 938.23 486.61, 953.75 468.68 M917.41 516.59 C925.05 507.94, 935.67 492.43, 954.15 474.32 M917.41 516.59 C924.09 504.53, 936.65 493.65, 954.15 474.32 M922.39 516.95 C926.31 508.24, 934.92 500.76, 953.88 480.72 M922.39 516.95 C928.74 510.75, 938.71 499.8, 953.88 480.72 M928.69 515.8 C937.68 508.33, 942.21 498.94, 953.62 487.12 M928.69 515.8 C938.2 505.09, 946.2 495.57, 953.62 487.12 M935.65 513.89 C936.97 507.9, 942.59 504.34, 951.39 495.78 M935.65 513.89 C939.66 510.68, 943.67 504.82, 951.39 495.78" stroke="#f4fafb" stroke-width="0.5" fill="none"></path><path d="M32 0 C346.11 6.31, 659.18 5.19, 921.33 0 M32 0 C313.29 -3.24, 595.21 -2.77, 921.33 0 M921.33 0 C941.5 -3.31, 954.52 10.8, 953.33 32 M921.33 0 C943.58 -1.28, 957.81 14.24, 953.33 32 M953.33 32 C952.25 209.76, 954.71 386.14, 953.33 484.67 M953.33 32 C951.43 142.71, 950.04 253.83, 953.33 484.67 M953.33 484.67 C951.8 503.09, 945.53 515.83, 921.33 516.67 M953.33 484.67 C956.37 508.17, 940.77 515.02, 921.33 516.67 M921.33 516.67 C686.66 522.49, 449.46 523.58, 32 516.67 M921.33 516.67 C649.21 518.9, 378.47 519.71, 32 516.67 M32 516.67 C12.27 515.49, -2.79 508.84, 0 484.67 M32 516.67 C9.62 517.33, 1.31 507.7, 0 484.67 M0 484.67 C2.11 323.1, 3.46 158.93, 0 32 M0 484.67 C-1.1 390.62, -0.79 297.34, 0 32 M0 32 C3.01 10.62, 11.24 1.15, 32 0 M0 32 C1.26 15.08, 9.3 3.02, 32 0" stroke="#05525a" stroke-width="1" fill="none"></path></g><g stroke-linecap="round" transform="translate(2389.4196881930225 11.891677408880582) rotate(0 476.6666666666665 258.33333333333326)"><path d="M7.86 8.16 C7.86 8.16, 7.86 8.16, 7.86 8.16 M7.86 8.16 C7.86 8.16, 7.86 8.16, 7.86 8.16 M2.35 20.59 C4.6 13.32, 7.74 12.32, 18.1 2.48 M2.35 20.59 C4.39 16.36, 7.83 10.85, 18.1 2.48 M1.43 27.75 C10.48 17.8, 15.55 6.68, 24.4 1.33 M1.43 27.75 C8.96 16.99, 17.21 9.61, 24.4 1.33 M0.52 34.9 C6.59 21.62, 17.59 15.31, 30.7 0.18 M0.52 34.9 C6.37 25.51, 13.33 19.11, 30.7 0.18 M0.26 41.3 C11.53 27.3, 23.96 8.09, 36.34 -0.21 M0.26 41.3 C10.99 29.24, 21.21 14.1, 36.34 -0.21 M-0.01 47.7 C15.84 34.69, 28.62 15.54, 41.33 0.15 M-0.01 47.7 C10.32 37.23, 15.93 25.47, 41.33 0.15 M0.39 53.34 C11.65 36.83, 25.66 28.74, 46.97 -0.25 M0.39 53.34 C14.29 35.87, 28.96 15.55, 46.97 -0.25 M0.13 59.74 C17.07 36.86, 34.25 16.89, 51.96 0.11 M0.13 59.74 C16.49 40.17, 35.09 19.8, 51.96 0.11 M0.52 65.38 C17.33 46.53, 33.12 25.05, 57.6 -0.28 M0.52 65.38 C14.23 50.31, 26.16 36.05, 57.6 -0.28 M0.26 71.78 C19.46 46.32, 34 27.82, 62.59 0.08 M0.26 71.78 C15.49 54.19, 32.07 36.08, 62.59 0.08 M0 78.17 C25.85 53.69, 48.63 26.06, 67.57 0.44 M0 78.17 C16.49 55.93, 34.89 38.86, 67.57 0.44 M0.39 83.82 C24.13 52.43, 48.45 28.82, 73.22 0.04 M0.39 83.82 C25.48 53.04, 53.04 26.54, 73.22 0.04 M0.13 90.22 C14.63 68.35, 33.44 47.53, 78.2 0.41 M0.13 90.22 C18.64 72.3, 33.96 54.02, 78.2 0.41 M0.53 95.86 C18.21 79.12, 34.67 56.31, 83.85 0.01 M0.53 95.86 C21.11 70.86, 42.18 45.92, 83.85 0.01 M0.26 102.26 C29.61 72.69, 48.36 41.7, 88.83 0.37 M0.26 102.26 C23.73 72.83, 45.82 47.37, 88.83 0.37 M0 108.65 C35.82 73.95, 60.93 38.95, 94.48 -0.02 M0 108.65 C32.44 74.12, 64.33 35.39, 94.48 -0.02 M0.4 114.3 C35.96 73.93, 70.76 32.51, 99.46 0.34 M0.4 114.3 C26.41 91.45, 47.72 63, 99.46 0.34 M0.14 120.69 C33.26 85.31, 59.02 50.83, 105.11 -0.06 M0.14 120.69 C39.49 79.73, 77.96 34.21, 105.11 -0.06 M0.53 126.34 C46.69 71.33, 90.69 23.54, 110.09 0.3 M0.53 126.34 C25.38 96.54, 50.12 69.28, 110.09 0.3 M0.27 132.74 C40.83 94.61, 72.97 52.72, 115.74 -0.09 M0.27 132.74 C35.74 92.23, 71.58 50.78, 115.74 -0.09 M0.01 139.13 C30.55 100.07, 67.65 56.95, 120.72 0.27 M0.01 139.13 C30.78 101.3, 60.63 64.46, 120.72 0.27 M0.4 144.78 C30.05 116.57, 47.93 84.8, 126.37 -0.13 M0.4 144.78 C38.82 98.25, 79.6 54.51, 126.37 -0.13 M0.14 151.17 C50.15 95.41, 97.08 41.39, 131.35 0.23 M0.14 151.17 C33.33 114.58, 63.5 79.04, 131.35 0.23 M0.54 156.82 C28.34 121.54, 57.61 94.13, 137 -0.16 M0.54 156.82 C46.74 106.71, 90.09 55.48, 137 -0.16 M0.27 163.22 C60.83 95.03, 113.96 35.26, 141.98 0.2 M0.27 163.22 C45.55 115, 88.83 65.28, 141.98 0.2 M0.01 169.61 C57.21 109.75, 106.03 47.91, 147.63 -0.2 M0.01 169.61 C34.97 124.96, 68.51 86.21, 147.63 -0.2 M0.41 175.26 C44.64 122.79, 86.04 74.74, 152.61 0.16 M0.41 175.26 C59.01 108.92, 115.57 42.18, 152.61 0.16 M0.15 181.65 C56.08 119.4, 107.63 56.55, 158.26 -0.23 M0.15 181.65 C63.11 111.98, 128.04 39.37, 158.26 -0.23 M0.54 187.3 C39.38 135.73, 83.32 91.18, 163.24 0.13 M0.54 187.3 C57.03 121.92, 112.45 54.12, 163.24 0.13 M0.28 193.69 C39.83 149.69, 72.33 112.3, 168.89 -0.27 M0.28 193.69 C51.04 139.44, 95.45 83.29, 168.89 -0.27 M0.02 200.09 C44.53 148.31, 85.78 102.23, 173.87 0.09 M0.02 200.09 C56.14 136.16, 113.15 72.1, 173.87 0.09 M0.41 205.74 C51.64 154.46, 99.36 96.26, 178.86 0.45 M0.41 205.74 C66.79 126.2, 134.16 50.68, 178.86 0.45 M0.15 212.13 C49.88 155.13, 97.64 98.28, 184.5 0.06 M0.15 212.13 C73.51 133.1, 143.23 52.52, 184.5 0.06 M0.55 217.78 C73.45 131.74, 146.54 48.37, 189.49 0.42 M0.55 217.78 C64.75 137.86, 134.77 58.32, 189.49 0.42 M0.28 224.17 C59.04 150.61, 125.74 79.02, 195.13 0.03 M0.28 224.17 C73.39 138.74, 147.59 52.34, 195.13 0.03 M0.02 230.57 C64.8 158.83, 132.19 85.85, 200.12 0.39 M0.02 230.57 C58.54 164.12, 117.38 93.25, 200.12 0.39 M0.42 236.22 C49.04 183.39, 94.56 124.52, 205.76 -0.01 M0.42 236.22 C75.24 147.31, 152.79 58.58, 205.76 -0.01 M0.16 242.61 C69.54 159.57, 145.07 75.82, 210.75 0.35 M0.16 242.61 C50.53 184.81, 99.05 126.71, 210.75 0.35 M-0.11 249.01 C47.9 198.01, 96.29 140.37, 216.39 -0.04 M-0.11 249.01 C45.94 195.07, 92.44 138.77, 216.39 -0.04 M0.29 254.65 C53.45 198.46, 104.22 135.47, 221.38 0.32 M0.29 254.65 C88.08 151.59, 176.97 48.11, 221.38 0.32 M0.03 261.05 C70.28 174.73, 142.22 88.34, 227.02 -0.08 M0.03 261.05 C75.2 174.62, 148.9 88.77, 227.02 -0.08 M0.42 266.69 C70.78 183.86, 146.56 97.84, 232.01 0.28 M0.42 266.69 C49.84 209.85, 101.5 151.4, 232.01 0.28 M0.16 273.09 C52.39 211.55, 102.88 157.03, 237.65 -0.11 M0.16 273.09 C77.36 186.11, 154.86 95.87, 237.65 -0.11 M-0.1 279.49 C88.26 176.96, 178.23 78.59, 242.64 0.25 M-0.1 279.49 C74.28 192.82, 151.51 107.36, 242.64 0.25 M0.29 285.13 C85.35 188.72, 169.3 87.69, 248.28 -0.15 M0.29 285.13 C54.08 224.18, 107.59 160.87, 248.28 -0.15 M0.03 291.53 C87.53 197.76, 174.15 98.77, 253.27 0.21 M0.03 291.53 C63.98 215.6, 131.67 139.5, 253.27 0.21 M0.43 297.17 C102.13 183.98, 205.77 65.28, 258.91 -0.18 M0.43 297.17 C102.77 178.52, 207.71 59.04, 258.91 -0.18 M0.17 303.57 C65.59 228.06, 127.19 161.98, 263.9 0.18 M0.17 303.57 C71.39 218.86, 142.43 137.59, 263.9 0.18 M-0.1 309.97 C71.96 223.96, 142.38 143.19, 269.54 -0.22 M-0.1 309.97 C66.12 232.75, 129.08 160.67, 269.54 -0.22 M0.3 315.61 C64.58 240.46, 132.59 159.41, 274.53 0.14 M0.3 315.61 C84.96 221.23, 166.93 125.32, 274.53 0.14 M0.04 322.01 C74.5 238.34, 148.13 156.75, 280.17 -0.25 M0.04 322.01 C85 220.12, 172.06 118.75, 280.17 -0.25 M0.43 327.65 C108.26 198.09, 217.89 73.55, 285.16 0.11 M0.43 327.65 C92.94 223.06, 183.37 117.87, 285.16 0.11 M0.17 334.05 C85.67 235.6, 171.46 138.6, 290.8 -0.28 M0.17 334.05 C106.97 208.73, 214.19 86.13, 290.8 -0.28 M-0.09 340.45 C81.85 245.31, 162.81 151.13, 295.79 0.08 M-0.09 340.45 C81.71 247.34, 160.87 154.62, 295.79 0.08 M0.3 346.09 C85.53 241.94, 173.73 142.88, 300.78 0.44 M0.3 346.09 C105.14 222.21, 212.93 99.62, 300.78 0.44 M0.04 352.49 C113.57 226.48, 225.53 97.9, 306.42 0.04 M0.04 352.49 C87.99 252.14, 175.67 151.08, 306.42 0.04 M0.44 358.13 C64.73 287.04, 128.28 210.13, 311.41 0.4 M0.44 358.13 C126.77 216.96, 250.67 75.73, 311.41 0.4 M0.18 364.53 C90.12 261.61, 181.01 159.21, 317.05 0.01 M0.18 364.53 C92.88 256.75, 187.32 148.5, 317.05 0.01 M-0.09 370.93 C128.05 227.86, 252.16 84.54, 322.04 0.37 M-0.09 370.93 C69.37 291.82, 139.72 211.2, 322.04 0.37 M0.31 376.57 C96.68 263.71, 196.05 149.31, 327.68 -0.03 M0.31 376.57 C69.07 298.18, 137.74 218.44, 327.68 -0.03 M0.05 382.97 C64.49 303.51, 132.81 227.8, 332.67 0.33 M0.05 382.97 C105.86 260.77, 210.06 141.45, 332.67 0.33 M0.44 388.61 C98.66 277.76, 197.5 162.88, 338.31 -0.06 M0.44 388.61 C107.34 260.07, 217.47 134.17, 338.31 -0.06 M0.18 395.01 C81.84 306.62, 160.11 214.55, 343.3 0.3 M0.18 395.01 C130.86 244.03, 261.67 93.34, 343.3 0.3 M-0.08 401.41 C117.58 263.41, 237.08 123.23, 348.94 -0.1 M-0.08 401.41 C115.5 271.71, 228.51 140.64, 348.94 -0.1 M0.31 407.05 C93.68 300.24, 185.11 191.63, 353.93 0.26 M0.31 407.05 C105.01 286.55, 210.4 165.57, 353.93 0.26 M0.05 413.45 C125.45 271.91, 249.49 128.98, 359.57 -0.13 M0.05 413.45 C106.45 293.6, 209.57 173.19, 359.57 -0.13 M0.45 419.09 C110.62 293.38, 221.27 163.29, 364.56 0.23 M0.45 419.09 C118.38 279.83, 239.18 140.47, 364.56 0.23 M0.18 425.49 C83.79 330.68, 166.32 234.62, 370.2 -0.17 M0.18 425.49 C100.45 309.6, 199.51 194.65, 370.2 -0.17 M-0.08 431.89 C142.26 269.69, 286.18 105.72, 375.19 0.19 M-0.08 431.89 C128.75 283.38, 255.51 137.82, 375.19 0.19 M0.32 437.53 C107.72 312.34, 216.16 186.16, 380.83 -0.2 M0.32 437.53 C124.56 297.81, 246.37 156.92, 380.83 -0.2 M0.06 443.93 C120.79 305.19, 238.19 167.39, 385.82 0.16 M0.06 443.93 C137.28 284.57, 274.16 126.75, 385.82 0.16 M0.45 449.57 C106.55 327.02, 215.29 199.79, 391.46 -0.24 M0.45 449.57 C105.62 324.78, 215.26 199.95, 391.46 -0.24 M0.19 455.97 C134.35 303.41, 270.91 150.15, 396.45 0.12 M0.19 455.97 C90.21 356.58, 178.03 256.28, 396.45 0.12 M-0.07 462.37 C141.29 297.15, 283.27 135.55, 402.09 -0.27 M-0.07 462.37 C149.91 296.07, 296.52 126.62, 402.09 -0.27 M0.32 468.01 C133.42 312.22, 267.07 160.45, 407.08 0.09 M0.32 468.01 C137.24 307.06, 277.01 146.65, 407.08 0.09 M0.06 474.41 C101.88 352.16, 207.81 228.4, 412.07 0.45 M0.06 474.41 C162.88 291.74, 322.89 108.11, 412.07 0.45 M0.46 480.05 C138.35 315.63, 277.81 155.43, 417.71 0.06 M0.46 480.05 C141.3 323.42, 279.16 164.56, 417.71 0.06 M0.19 486.45 C163.88 304.01, 322.03 120.9, 422.7 0.42 M0.19 486.45 C149.41 315.37, 297.64 145.9, 422.7 0.42 M1.25 491.34 C107.02 373.76, 211.1 251.22, 428.34 0.02 M1.25 491.34 C164.4 304.97, 324.46 120.47, 428.34 0.02 M1.64 496.98 C126.5 350.5, 252.88 207.54, 433.33 0.38 M1.64 496.98 C106.97 379.92, 208.3 263.41, 433.33 0.38 M4 500.36 C154.9 320.26, 310.9 145.45, 438.97 -0.01 M4 500.36 C117.1 372.46, 228.87 244.82, 438.97 -0.01 M6.37 503.74 C100.88 405.43, 187.62 302.49, 443.96 0.35 M6.37 503.74 C101.63 397.74, 196.95 289.83, 443.96 0.35 M8.73 507.12 C167.91 321.88, 328.3 137.86, 449.6 -0.05 M8.73 507.12 C155.74 336.51, 304.51 164.58, 449.6 -0.05 M11.09 510.5 C152.42 346.6, 293.78 181.61, 454.59 0.31 M11.09 510.5 C127.55 380.72, 238.75 251.06, 454.59 0.31 M14.11 513.12 C185.66 312.89, 357.93 114.48, 460.23 -0.08 M14.11 513.12 C185.42 318.6, 354.41 124.77, 460.23 -0.08 M18.44 514.24 C143.28 371.71, 265.03 231.27, 465.22 0.28 M18.44 514.24 C153.43 365.17, 284.5 213.54, 465.22 0.28 M22.77 515.35 C179.96 335.83, 340.16 149.3, 470.86 -0.12 M22.77 515.35 C166.63 348.05, 310.11 183.87, 470.86 -0.12 M27.76 515.71 C154.59 364.35, 284.75 215.45, 475.85 0.24 M27.76 515.71 C149.67 373.11, 274.51 229.74, 475.85 0.24 M32.09 516.82 C133.12 406.16, 229.82 293.9, 481.49 -0.15 M32.09 516.82 C163.2 370.12, 292.78 220.14, 481.49 -0.15 M37.73 516.43 C139.43 402.3, 236.48 286.82, 486.48 0.21 M37.73 516.43 C186.47 350.41, 333.17 180.61, 486.48 0.21 M42.72 516.79 C190.85 350.9, 336.05 183.07, 492.12 -0.19 M42.72 516.79 C136.36 410.59, 228.27 304.38, 492.12 -0.19 M47.71 517.15 C193.99 343.5, 341.07 175.42, 497.11 0.17 M47.71 517.15 C204.45 334.62, 361.66 154.71, 497.11 0.17 M53.35 516.76 C157.2 391.96, 266.65 268.94, 502.75 -0.22 M53.35 516.76 C219.26 321.83, 387.36 129.89, 502.75 -0.22 M58.34 517.12 C186.35 371.92, 317.56 221.9, 507.74 0.14 M58.34 517.12 C166.84 390.01, 277.53 263.3, 507.74 0.14 M63.98 516.72 C220.4 336.37, 378.28 153.26, 513.38 -0.25 M63.98 516.72 C193.72 369.95, 320.71 225.86, 513.38 -0.25 M68.97 517.08 C242.53 321.55, 415.2 122.45, 518.37 0.11 M68.97 517.08 C204.98 364.24, 339.53 208.12, 518.37 0.11 M74.61 516.69 C180.55 392.62, 288.59 268.91, 523.35 0.47 M74.61 516.69 C170.11 405.68, 264.5 295.95, 523.35 0.47 M79.6 517.05 C218.93 353.23, 359.08 191.22, 529 0.07 M79.6 517.05 C251.54 314.89, 425.29 114.32, 529 0.07 M85.24 516.65 C231.59 350.02, 377.84 183.51, 533.98 0.43 M85.24 516.65 C184.9 396.68, 289.12 276.52, 533.98 0.43 M90.23 517.01 C262.21 314.91, 436.57 116.02, 539.63 0.04 M90.23 517.01 C257.95 327.09, 422.42 137.89, 539.63 0.04 M95.87 516.62 C192.07 409.83, 290.36 296.78, 544.61 0.4 M95.87 516.62 C274.41 309.18, 452.32 104.74, 544.61 0.4 M100.86 516.98 C252.15 346.82, 400.94 174.24, 550.26 0 M100.86 516.98 C231.48 371.85, 360.22 223.73, 550.26 0 M106.5 516.58 C259.01 342.96, 410.57 168.02, 555.24 0.36 M106.5 516.58 C260.06 341.67, 415.21 162.75, 555.24 0.36 M111.49 516.94 C237.63 366.1, 366.37 216.54, 560.89 -0.03 M111.49 516.94 C283 314.77, 455.84 116.04, 560.89 -0.03 M117.13 516.55 C271.29 343.39, 424.17 166.92, 565.87 0.33 M117.13 516.55 C251.25 356.18, 390.53 196.17, 565.87 0.33 M122.12 516.91 C301.53 314.34, 477.01 111.58, 571.52 -0.07 M122.12 516.91 C246.07 372.04, 372.3 226.21, 571.52 -0.07 M127.76 516.51 C255.07 367.95, 382.86 222.67, 576.5 0.29 M127.76 516.51 C264.84 356.7, 401.5 199.07, 576.5 0.29 M132.75 516.87 C226.69 404.64, 322.6 290.45, 582.15 -0.1 M132.75 516.87 C307.77 313.9, 483.19 111, 582.15 -0.1 M138.39 516.48 C235.54 401.87, 333.34 289.64, 587.14 0.26 M138.39 516.48 C291.91 345.24, 443.18 169.99, 587.14 0.26 M143.38 516.84 C287.62 348.79, 436.33 181.87, 592.78 -0.14 M143.38 516.84 C281.35 358.16, 419.97 199.57, 592.78 -0.14 M149.02 516.45 C253.9 391.79, 360 270.7, 597.77 0.22 M149.02 516.45 C325.79 309.09, 505.65 104.01, 597.77 0.22 M154.01 516.81 C298.79 352.87, 441.16 190.58, 603.41 -0.17 M154.01 516.81 C251.92 402.49, 351.58 289.21, 603.41 -0.17 M159.65 516.41 C262.5 398.42, 364.56 279.64, 608.4 0.19 M159.65 516.41 C282.16 377.49, 402.79 239.83, 608.4 0.19 M164.64 516.77 C330.5 322.02, 500.78 126.15, 614.04 -0.2 M164.64 516.77 C298.56 362.52, 433.7 208.05, 614.04 -0.2 M169.62 517.13 C305.69 363.48, 442.75 207.69, 619.03 0.16 M169.62 517.13 C313.09 352.53, 453.51 190.32, 619.03 0.16 M175.27 516.74 C323.81 353.48, 469.05 184.15, 624.67 -0.24 M175.27 516.74 C314.57 354.76, 454.05 195.12, 624.67 -0.24 M180.25 517.1 C343.55 329.2, 508.51 140.85, 629.66 0.12 M180.25 517.1 C304.94 367.26, 433.93 217.81, 629.66 0.12 M185.9 516.7 C355.8 320.62, 524.49 123.03, 635.3 -0.27 M185.9 516.7 C366.95 310.06, 545.02 105.1, 635.3 -0.27 M190.89 517.06 C350.71 334.41, 509.23 151.52, 640.29 0.09 M190.89 517.06 C344.33 346.13, 493.39 173.58, 640.29 0.09 M196.53 516.67 C367.67 318.72, 538.47 126.97, 645.27 0.45 M196.53 516.67 C326.88 364.34, 459.17 211.19, 645.27 0.45 M201.52 517.03 C299.97 409.11, 399.11 296.97, 650.92 0.05 M201.52 517.03 C374.65 322.45, 545.56 126.25, 650.92 0.05 M207.16 516.63 C373.7 324.12, 538.95 134.5, 655.9 0.41 M207.16 516.63 C356.07 342.31, 504.19 171.02, 655.9 0.41 M212.15 516.99 C342.88 364.13, 477.29 211.7, 661.55 0.02 M212.15 516.99 C364.48 337.12, 517.26 160.09, 661.55 0.02 M217.79 516.6 C312.36 400.99, 412.31 288.87, 666.53 0.38 M217.79 516.6 C315.35 405.34, 411.2 296.04, 666.53 0.38 M222.78 516.96 C390.78 327.42, 557.86 138.19, 672.18 -0.02 M222.78 516.96 C368.14 346.48, 516.52 176.24, 672.18 -0.02 M228.42 516.56 C408.47 310.39, 587.23 107.32, 677.16 0.34 M228.42 516.56 C335.68 392.41, 443.75 266.92, 677.16 0.34 M233.41 516.92 C331.06 409.01, 426.99 300.96, 682.81 -0.05 M233.41 516.92 C333.86 401.05, 436.98 281.54, 682.81 -0.05 M239.05 516.53 C411.5 316.48, 586.7 116.79, 687.79 0.31 M239.05 516.53 C370.75 362.98, 504.61 208.94, 687.79 0.31 M244.04 516.89 C334.94 406.8, 433.14 298.99, 693.44 -0.09 M244.04 516.89 C387.09 351.4, 533.25 182.51, 693.44 -0.09 M249.68 516.5 C383.71 366.21, 514.91 217.22, 698.42 0.27 M249.68 516.5 C363.19 380.91, 479.88 245.46, 698.42 0.27 M254.67 516.86 C427.84 321.22, 601.62 121.25, 704.07 -0.12 M254.67 516.86 C379.2 370.7, 505.78 224.92, 704.07 -0.12 M260.31 516.46 C358.87 403.81, 456.41 289.76, 709.05 0.24 M260.31 516.46 C432.55 318.36, 606.44 119.27, 709.05 0.24 M265.3 516.82 C416.79 343.13, 568.43 166.73, 714.7 -0.16 M265.3 516.82 C423.55 333.51, 582.66 150.62, 714.7 -0.16 M270.94 516.43 C404.68 363.6, 538.48 212.02, 719.68 0.2 M270.94 516.43 C418.04 348.86, 564.43 181.15, 719.68 0.2 M275.93 516.79 C417.5 360.13, 556.66 201.66, 725.33 -0.19 M275.93 516.79 C444.26 316.02, 615.75 117.94, 725.33 -0.19 M280.91 517.15 C396.37 386.67, 509.42 252.2, 730.31 0.17 M280.91 517.15 C420.05 353.09, 560.57 191.9, 730.31 0.17 M286.56 516.75 C436.88 342.08, 590 168.31, 735.96 -0.22 M286.56 516.75 C466.09 308.24, 645.02 102.08, 735.96 -0.22 M291.54 517.11 C399.8 385.63, 515.14 256.87, 740.94 0.14 M291.54 517.11 C461.1 323.39, 627.8 131.14, 740.94 0.14 M297.19 516.72 C420.89 377.92, 543.67 237.74, 746.59 -0.26 M297.19 516.72 C392.8 407.17, 490.74 295.1, 746.59 -0.26 M302.17 517.08 C411.55 396.08, 519.84 272.62, 751.57 0.1 M302.17 517.08 C441.65 356.7, 583.67 192.25, 751.57 0.1 M307.82 516.68 C483 313.81, 658.36 112.47, 756.56 0.46 M307.82 516.68 C418.3 389.84, 528.77 262.38, 756.56 0.46 M312.8 517.04 C490.07 314.25, 667.3 112.99, 762.2 0.07 M312.8 517.04 C469.38 339.07, 622.12 162.43, 762.2 0.07 M318.45 516.65 C483.42 327.25, 648.63 138.79, 767.19 0.43 M318.45 516.65 C439.67 375.34, 561.76 232.21, 767.19 0.43 M323.43 517.01 C459.96 361.37, 597.05 204.3, 772.83 0.03 M323.43 517.01 C424.85 396.51, 529.36 275.73, 772.83 0.03 M329.08 516.61 C457.64 366.32, 588.95 214.79, 777.82 0.39 M329.08 516.61 C452.31 372.25, 579.35 226, 777.82 0.39 M334.06 516.97 C499.29 332.02, 660.79 145.31, 783.46 0 M334.06 516.97 C495.16 332.49, 657.39 144.7, 783.46 0 M339.71 516.58 C465.12 370.65, 589.97 229.86, 788.45 0.36 M339.71 516.58 C447.38 397.43, 555 273.28, 788.45 0.36 M344.69 516.94 C517.89 319.44, 690.76 121.23, 794.09 -0.04 M344.69 516.94 C473.85 366.89, 604.28 216.76, 794.09 -0.04 M350.34 516.54 C453.55 395.52, 556.78 276.22, 799.08 0.32 M350.34 516.54 C481.61 362.48, 615.14 211.16, 799.08 0.32 M355.32 516.9 C531 314.76, 707.34 108.47, 804.72 -0.07 M355.32 516.9 C524.49 321.59, 692.06 129.42, 804.72 -0.07 M360.97 516.51 C492.89 363.93, 624.94 210.54, 809.71 0.29 M360.97 516.51 C534.09 313.81, 711.57 110.03, 809.71 0.29 M365.95 516.87 C471.78 398.61, 574.15 279.46, 815.35 -0.11 M365.95 516.87 C521.62 339.48, 673.66 164.21, 815.35 -0.11 M371.6 516.48 C459.32 410.65, 549.51 307.66, 820.34 0.25 M371.6 516.48 C493.2 375.96, 613.23 237.73, 820.34 0.25 M376.58 516.84 C527.36 345.11, 677.62 170.68, 825.98 -0.14 M376.58 516.84 C518.6 356.27, 658.17 196.78, 825.98 -0.14 M382.23 516.44 C519.36 356.39, 660.38 196.2, 830.97 0.22 M382.23 516.44 C488.94 393.65, 592.73 275.8, 830.97 0.22 M387.21 516.8 C556.1 324.83, 724.73 131.82, 836.61 -0.17 M387.21 516.8 C474.45 413.88, 564.86 309.26, 836.61 -0.17 M392.86 516.41 C566.08 318.51, 737.52 120.71, 841.6 0.19 M392.86 516.41 C570.47 314.5, 744.87 115.16, 841.6 0.19 M397.84 516.77 C490.54 402.27, 588.94 290.18, 847.24 -0.21 M397.84 516.77 C536.88 358.25, 675.81 198.65, 847.24 -0.21 M402.83 517.13 C496.65 407.49, 589.96 299.43, 852.23 0.15 M402.83 517.13 C502.92 396.03, 605.69 277.46, 852.23 0.15 M408.47 516.73 C568.72 334.6, 727.64 152.32, 857.87 -0.24 M408.47 516.73 C553.1 348.33, 697.35 183.61, 857.87 -0.24 M413.46 517.09 C579.32 327.37, 746.12 134.68, 862.86 0.12 M413.46 517.09 C518.83 391.82, 626.18 267.93, 862.86 0.12 M419.1 516.7 C548.89 368.48, 677.87 221.61, 868.5 -0.28 M419.1 516.7 C555.52 355.85, 693.56 196.86, 868.5 -0.28 M424.09 517.06 C549.72 372.4, 675.34 228.81, 873.49 0.08 M424.09 517.06 C552.38 373.66, 678.15 228.9, 873.49 0.08 M429.73 516.66 C569.23 352.89, 711.95 190.29, 878.48 0.44 M429.73 516.66 C575.36 343.66, 723.1 173.74, 878.48 0.44 M434.72 517.02 C590.95 332.69, 745.99 150.44, 884.12 0.05 M434.72 517.02 C528.93 405.36, 623.49 296.63, 884.12 0.05 M440.36 516.63 C608.03 320.25, 775.09 127.35, 889.11 0.41 M440.36 516.63 C547.05 394.35, 654.63 271.98, 889.11 0.41 M445.35 516.99 C540.8 406.8, 636.82 293.36, 894.75 0.01 M445.35 516.99 C565.67 381.08, 686.92 242.25, 894.75 0.01 M450.99 516.59 C627.37 316, 804.65 115.31, 899.74 0.37 M450.99 516.59 C574.42 377.16, 693.12 238.21, 899.74 0.37 M455.98 516.95 C594.24 354.61, 736.11 192.66, 905.38 -0.02 M455.98 516.95 C587.35 369.45, 715.31 221.37, 905.38 -0.02 M461.62 516.56 C603.73 353.16, 745.36 187.99, 910.37 0.34 M461.62 516.56 C569.58 392.72, 678.12 267.96, 910.37 0.34 M466.61 516.92 C599.04 360.47, 737.43 202.2, 916.01 -0.06 M466.61 516.92 C589.48 374.46, 713.75 231.25, 916.01 -0.06 M472.25 516.53 C616.18 349.15, 762.27 180.35, 921 0.3 M472.25 516.53 C632.79 329.24, 798.39 141.08, 921 0.3 M477.24 516.89 C590.21 385.2, 703.46 255.46, 925.33 1.42 M477.24 516.89 C589.25 385.73, 701.47 255.23, 925.33 1.42 M482.88 516.49 C650.43 322.76, 816.65 132.72, 929.66 2.53 M482.88 516.49 C591.98 389.61, 703.07 262.5, 929.66 2.53 M487.87 516.85 C592.72 399.84, 699.38 279.41, 933.99 3.65 M487.87 516.85 C661.28 309.08, 839.4 105.47, 933.99 3.65 M493.51 516.46 C608.98 390.24, 720.34 261.48, 938.32 4.76 M493.51 516.46 C615.63 383.05, 732.85 247.05, 938.32 4.76 M498.5 516.82 C651.46 338.47, 802.39 161.65, 942.65 5.88 M498.5 516.82 C634.09 365.3, 765.62 214.23, 942.65 5.88 M504.14 516.42 C666.24 333.79, 825.44 149.32, 945.02 9.26 M504.14 516.42 C681.7 317.5, 855.85 117.01, 945.02 9.26 M509.13 516.78 C636.95 368.41, 764.5 222.33, 948.04 11.88 M509.13 516.78 C648.52 361.44, 785.64 203.41, 948.04 11.88 M514.12 517.14 C653.78 359.6, 789.14 204.3, 950.4 15.26 M514.12 517.14 C691.3 316.88, 866.26 115.07, 950.4 15.26 M519.76 516.75 C690.56 322.74, 858.61 127.46, 951.45 20.15 M519.76 516.75 C610.8 418.07, 697.01 317.63, 951.45 20.15 M524.75 517.11 C665.51 359.58, 807.05 197.17, 952.5 25.04 M524.75 517.11 C620.01 408.3, 715.53 298.08, 952.5 25.04 M530.39 516.71 C683.41 331.79, 842.19 153.16, 953.55 29.93 M530.39 516.71 C662.78 367.04, 793.21 217.22, 953.55 29.93 M535.38 517.07 C639.78 396.86, 742.89 277.66, 953.94 35.57 M535.38 517.07 C620.38 419.02, 704.91 320.12, 953.94 35.57 M541.02 516.68 C691.68 338.62, 847.62 162.59, 953.68 41.97 M541.02 516.68 C684.99 350.02, 832.39 181.58, 953.68 41.97 M546.01 517.04 C671.96 373.96, 797.26 225.79, 954.08 47.61 M546.01 517.04 C652.89 396.33, 761.03 271.73, 954.08 47.61 M551.65 516.64 C694.53 348.31, 840.06 182.37, 953.82 54.01 M551.65 516.64 C654.82 390.78, 762.62 267.69, 953.82 54.01 M556.64 517 C709.15 338.57, 865.04 158.4, 954.21 59.65 M556.64 517 C682.24 371.74, 806.42 228.26, 954.21 59.65 M562.28 516.61 C678.77 385.2, 791.87 254.69, 953.95 66.05 M562.28 516.61 C699.11 361.57, 833.11 206.05, 953.95 66.05 M567.27 516.97 C703.04 356.32, 839.74 201.95, 953.69 72.45 M567.27 516.97 C663.37 404.88, 761.92 293.32, 953.69 72.45 M572.91 516.58 C702.71 365.51, 835.77 212.45, 954.08 78.09 M572.91 516.58 C680.63 392.33, 787.56 269.73, 954.08 78.09 M577.9 516.94 C686.23 393.08, 794.64 268.14, 953.82 84.49 M577.9 516.94 C716.64 358.36, 854.79 200.28, 953.82 84.49 M583.54 516.54 C698.66 382.24, 817.59 248.84, 954.22 90.13 M583.54 516.54 C715.99 366.83, 847.77 217.03, 954.22 90.13 M588.53 516.9 C690.72 395.53, 799.33 274.92, 953.95 96.53 M588.53 516.9 C705.2 376.75, 825.05 238.09, 953.95 96.53 M594.17 516.51 C673.26 427.82, 749.09 339.37, 953.69 102.93 M594.17 516.51 C676.42 420.01, 759.3 324.86, 953.69 102.93 M599.16 516.87 C699.18 404.48, 797.28 293, 954.09 108.57 M599.16 516.87 C738.21 356.03, 879.53 194.39, 954.09 108.57 M604.8 516.47 C694.64 414.46, 781.15 312.84, 953.83 114.97 M604.8 516.47 C732.93 368.39, 860.4 220.07, 953.83 114.97 M609.79 516.83 C737.74 376.38, 861.9 233.04, 954.22 120.61 M609.79 516.83 C687.13 426.31, 763.87 336.64, 954.22 120.61 M615.43 516.44 C703.74 415.86, 793.42 312.04, 953.96 127.01 M615.43 516.44 C686.61 435.66, 756.83 355.35, 953.96 127.01 M620.42 516.8 C715.05 404.02, 811.14 293.88, 953.7 133.4 M620.42 516.8 C699.5 425.41, 782.17 331.9, 953.7 133.4 M626.06 516.4 C718.65 406.02, 810.09 301.02, 954.09 139.05 M626.06 516.4 C748.68 372.32, 871.24 231.69, 954.09 139.05 M631.05 516.76 C697.28 442.99, 762.41 363.73, 953.83 145.45 M631.05 516.76 C723.83 412.2, 813.95 307.05, 953.83 145.45 M636.04 517.12 C752.53 379.3, 872.14 242.13, 954.23 151.09 M636.04 517.12 C727.41 413.54, 820.15 307.86, 954.23 151.09 M641.68 516.73 C728.79 418.53, 814.75 320.38, 953.96 157.49 M641.68 516.73 C746.26 391.74, 853.28 269.43, 953.96 157.49 M646.67 517.09 C770.24 377.74, 891.93 238.08, 953.7 163.88 M646.67 517.09 C755.07 391.98, 864.36 265.55, 953.7 163.88 M652.31 516.69 C730.69 421.73, 806.73 329.73, 954.1 169.53 M652.31 516.69 C723.67 434.5, 792.3 356.02, 954.1 169.53 M657.3 517.05 C725.64 435.67, 794.62 354.95, 953.84 175.93 M657.3 517.05 C768.96 388.84, 879.2 262.24, 953.84 175.93 M662.94 516.66 C769.48 396, 873.28 274.29, 954.23 181.57 M662.94 516.66 C755.97 404.7, 851.04 295.73, 954.23 181.57 M667.93 517.02 C778.83 385.7, 892 261.5, 953.97 187.97 M667.93 517.02 C755.16 414.64, 843.27 313.99, 953.97 187.97 M673.57 516.62 C779.39 397.64, 882.2 280.75, 953.71 194.36 M673.57 516.62 C732.56 451.92, 788.79 386.25, 953.71 194.36 M678.56 516.98 C775.89 407.11, 869.09 297.92, 954.1 200.01 M678.56 516.98 C769.18 411.98, 860.76 306.27, 954.1 200.01 M684.2 516.59 C768.04 421.83, 848.66 329.44, 953.84 206.4 M684.2 516.59 C743.5 444.5, 804.65 372.1, 953.84 206.4 M689.19 516.95 C749.12 447.25, 812.89 373.72, 954.23 212.05 M689.19 516.95 C744.12 453.48, 799.5 390.37, 954.23 212.05 M694.83 516.56 C790.37 404.49, 889.17 296.36, 953.97 218.45 M694.83 516.56 C784.59 413.39, 872.49 310.07, 953.97 218.45 M699.82 516.92 C799.12 404.01, 898.44 289.01, 953.71 224.84 M699.82 516.92 C767.5 440.19, 834.86 362.38, 953.71 224.84 M705.46 516.52 C760.05 452.54, 814.39 384.95, 954.11 230.49 M705.46 516.52 C778.34 432.32, 851.3 349.11, 954.11 230.49 M710.45 516.88 C792.56 421.52, 873.98 326.5, 953.85 236.88 M710.45 516.88 C767.95 447.04, 826.65 377.86, 953.85 236.88 M716.09 516.49 C787.97 433.54, 859.57 346.85, 954.24 242.53 M716.09 516.49 C809.43 407.54, 901.62 301.27, 954.24 242.53 M721.08 516.85 C780.07 452.32, 838.56 386.57, 953.98 248.93 M721.08 516.85 C779.43 446.87, 839.21 381.1, 953.98 248.93 M726.72 516.45 C789.57 444.92, 847.25 373.5, 953.72 255.32 M726.72 516.45 C804.39 421.85, 884.52 331.55, 953.72 255.32 M731.71 516.81 C793.53 447.18, 853.98 371.26, 954.11 260.97 M731.71 516.81 C821.39 418.09, 909.61 315.63, 954.11 260.97 M737.35 516.42 C781.55 465.09, 825.97 416.61, 953.85 267.36 M737.35 516.42 C793.13 446.69, 854.27 379.37, 953.85 267.36 M742.34 516.78 C786.1 466, 834.93 410.34, 954.24 273.01 M742.34 516.78 C821.71 427.97, 899.09 334.51, 954.24 273.01 M747.32 517.14 C823.97 426.47, 901.46 334.81, 953.98 279.4 M747.32 517.14 C795.86 462.9, 844.85 404.53, 953.98 279.4 M752.97 516.74 C800.01 461.88, 850.44 405.3, 953.72 285.8 M752.97 516.74 C804.25 456.91, 856.22 397.57, 953.72 285.8 M757.95 517.1 C813.99 445.72, 877.12 379.63, 954.12 291.45 M757.95 517.1 C820.2 441.71, 882.48 367.47, 954.12 291.45 M763.6 516.71 C841.57 432.61, 911.74 345.65, 953.85 297.84 M763.6 516.71 C826.72 447.35, 887.9 374.34, 953.85 297.84 M768.58 517.07 C824.86 454.83, 876.14 391.17, 954.25 303.49 M768.58 517.07 C838.65 437.16, 911.08 351.15, 954.25 303.49 M774.23 516.67 C815.72 467.71, 859.58 416.82, 953.99 309.88 M774.23 516.67 C815.45 473.81, 853.04 427, 953.99 309.88 M779.21 517.03 C824.2 461.15, 870.39 413.83, 953.73 316.28 M779.21 517.03 C826.98 458.3, 878.06 401.68, 953.73 316.28 M784.86 516.64 C824.54 469.34, 867.4 422.57, 954.12 321.92 M784.86 516.64 C854.56 440.5, 919.68 365.62, 954.12 321.92 M789.84 517 C849.62 451.07, 904.02 383.65, 953.86 328.32 M789.84 517 C828.98 471.14, 869.27 422.09, 953.86 328.32 M795.49 516.61 C833.65 473.07, 872.64 427.51, 954.25 333.97 M795.49 516.61 C838.88 466.82, 881.18 421.45, 954.25 333.97 M800.48 516.97 C847.55 463.15, 895.63 408.48, 953.99 340.36 M800.48 516.97 C847.45 464.67, 892.65 410.27, 953.99 340.36 M806.12 516.57 C847.37 470.29, 889.66 421.47, 953.73 346.76 M806.12 516.57 C845.99 471.29, 883.47 428.75, 953.73 346.76 M811.11 516.93 C853.18 472.76, 896.43 427.67, 954.13 352.4 M811.11 516.93 C845.5 478.44, 878.92 437.94, 954.13 352.4 M816.75 516.54 C846.6 478.74, 882.06 446.3, 953.86 358.8 M816.75 516.54 C864.11 459.47, 915.98 400.6, 953.86 358.8 M821.74 516.9 C858.71 474.51, 888.73 435.49, 954.26 364.45 M821.74 516.9 C856.69 474.06, 895.38 430.34, 954.26 364.45 M827.38 516.5 C879.92 462.72, 923.71 402.3, 954 370.84 M827.38 516.5 C874.17 458.48, 922.8 400.16, 954 370.84 M832.37 516.86 C855.43 484.62, 885.41 451.75, 953.74 377.24 M832.37 516.86 C856.08 487.53, 881.48 458.1, 953.74 377.24 M838.01 516.47 C861.81 490.12, 889.17 464.01, 954.13 382.88 M838.01 516.47 C873.2 474.59, 913.42 435.05, 954.13 382.88 M843 516.83 C889 463.99, 935.41 412.56, 953.87 389.28 M843 516.83 C890.48 467.91, 929.82 419.17, 953.87 389.28 M848.64 516.43 C873.83 487.87, 901.88 455.93, 954.26 394.92 M848.64 516.43 C881.7 478.95, 914.38 441.31, 954.26 394.92 M853.63 516.79 C889.75 475.05, 925.6 434.16, 954 401.32 M853.63 516.79 C890.23 471.34, 931.44 426.92, 954 401.32 M858.61 517.15 C892.17 478.67, 926.45 434.47, 953.74 407.72 M858.61 517.15 C884.94 481.74, 917.55 449.47, 953.74 407.72 M864.26 516.76 C895.24 486.44, 922.26 448.5, 954.14 413.36 M864.26 516.76 C893.65 481.58, 924.65 448.24, 954.14 413.36 M869.24 517.12 C900.62 487.81, 922.64 448.86, 953.87 419.76 M869.24 517.12 C889.47 488.85, 912.9 464.81, 953.87 419.76 M874.89 516.72 C901.34 479.82, 933.45 452.74, 953.61 426.16 M874.89 516.72 C892.67 497.05, 906.12 479.43, 953.61 426.16 M879.87 517.08 C899.86 492.67, 925.06 468.24, 954.01 431.8 M879.87 517.08 C905.19 489.58, 930.1 461.23, 954.01 431.8 M885.52 516.69 C901.94 495.52, 927.6 470.45, 953.75 438.2 M885.52 516.69 C905.96 492.15, 925.04 470.54, 953.75 438.2 M890.5 517.05 C917.78 489.14, 942.32 462.17, 954.14 443.84 M890.5 517.05 C914 490.06, 939.86 459.27, 954.14 443.84 M896.15 516.66 C911.29 506.3, 919.49 484.91, 953.88 450.24 M896.15 516.66 C914.2 493.42, 930.97 472.81, 953.88 450.24 M901.13 517.02 C922.84 495.17, 936.28 469.75, 953.62 456.64 M901.13 517.02 C921.43 497.12, 939.09 473.18, 953.62 456.64 M906.78 516.62 C924.01 493.35, 943.94 479.01, 954.01 462.28 M906.78 516.62 C921.08 498.64, 939.21 477.41, 954.01 462.28 M911.76 516.98 C918.15 502.01, 931.06 496.79, 953.75 468.68 M911.76 516.98 C925.6 500.77, 938.05 485.77, 953.75 468.68 M917.41 516.59 C925.47 504.66, 938.1 492.95, 954.15 474.32 M917.41 516.59 C928.67 504.04, 943.47 487.71, 954.15 474.32 M922.39 516.95 C934.66 502.55, 943.69 487.73, 953.88 480.72 M922.39 516.95 C935.59 501.92, 944.86 488.56, 953.88 480.72 M928.69 515.8 C940.84 503.68, 942.64 499.48, 953.62 487.12 M928.69 515.8 C937.44 506.97, 945.22 497.46, 953.62 487.12 M935.65 513.89 C943.91 504.23, 944.92 497.67, 951.39 495.78 M935.65 513.89 C941.45 508.89, 947.15 499.41, 951.39 495.78" stroke="#f4fafb" stroke-width="0.5" fill="none"></path><path d="M32 0 C259.88 4.46, 485.92 3.28, 921.33 0 M32 0 C244.82 -3.72, 458.55 -2.89, 921.33 0 M921.33 0 C939.44 -0.26, 950.73 10.55, 953.33 32 M921.33 0 C939.1 -2.88, 957.13 12.92, 953.33 32 M953.33 32 C950.75 146.32, 951.03 259.88, 953.33 484.67 M953.33 32 C956.39 190.54, 956.53 348.12, 953.33 484.67 M953.33 484.67 C956.99 507.59, 943.93 519.39, 921.33 516.67 M953.33 484.67 C953.01 505.04, 945.18 520.84, 921.33 516.67 M921.33 516.67 C735.32 521.81, 551.11 522.88, 32 516.67 M921.33 516.67 C626.79 523.13, 331.57 523.41, 32 516.67 M32 516.67 C6.83 517.55, 0.94 502.07, 0 484.67 M32 516.67 C10.96 516.88, 1.65 501.73, 0 484.67 M0 484.67 C0.5 358.85, 1.34 230.56, 0 32 M0 484.67 C0.88 372.18, 2.02 259.78, 0 32 M0 32 C3.96 11.02, 8.69 -2.74, 32 0 M0 32 C-1.12 7.79, 14.62 1.68, 32 0" stroke="#05525a" stroke-width="1" fill="none"></path></g><g stroke-linecap="round"><g transform="translate(967.3909032397931 248.3333333333336) rotate(0 111.66666666666674 0)"><path d="M1.35 2.11 C38.47 1.57, 184.67 -0.32, 221.93 -0.51 M-1.37 0.79 C36.77 1.87, 190.02 3.64, 227.57 2.84" stroke="#05525a" stroke-width="1" fill="none"></path></g><g transform="translate(967.3909032397931 248.3333333333336) rotate(0 111.66666666666674 0)"><path d="M202.42 11.15 C206.09 12.31, 215.88 5.53, 224.82 5.97 M200.11 13.44 C207.06 10.71, 217.85 7.69, 225.97 4.21" stroke="#05525a" stroke-width="1" fill="none"></path></g><g transform="translate(967.3909032397931 248.3333333333336) rotate(0 111.66666666666674 0)"><path d="M202.38 -9.37 C206.47 -2.66, 216.26 -3.89, 224.82 5.97 M200.07 -7.08 C206.68 -3.4, 217.48 -0.01, 225.97 4.21" stroke="#05525a" stroke-width="1" fill="none"></path></g></g><mask></mask><g stroke-linecap="round"><g transform="translate(2170.724236573126 258.3333333333336) rotate(0 103.33333333333348 0)"><path d="M-0.61 -0.76 C33.75 -1.19, 169.65 -2.38, 204 -2.16 M4.26 -3.64 C39.63 -3.83, 175.82 -0.97, 208.96 0.29" stroke="#05525a" stroke-width="1" fill="none"></path></g><g transform="translate(2170.724236573126 258.3333333333336) rotate(0 103.33333333333348 0)"><path d="M179.41 5.96 C183.75 6.13, 193.96 8.54, 210.98 1.34 M182.28 8.6 C190.8 6.76, 202.92 3.28, 208.67 1.93" stroke="#05525a" stroke-width="1" fill="none"></path></g><g transform="translate(2170.724236573126 258.3333333333336) rotate(0 103.33333333333348 0)"><path d="M179.97 -14.55 C184.25 -9.79, 194.33 -2.79, 210.98 1.34 M182.84 -11.91 C191.28 -6.15, 203.19 -2.03, 208.67 1.93" stroke="#05525a" stroke-width="1" fill="none"></path></g></g><mask></mask><g transform="translate(255.72423657312595 171.66666666666697) rotate(0 203.29730224609375 97.50000000000006)"><text x="0" y="0" font-family="Virgil, Segoe UI Emoji" font-size="156px" fill="#05525a" text-anchor="start" style="white-space: pre;" direction="ltr" dominant-baseline="text-before-edge">ONNX</text></g><g transform="translate(1372.3909032397924 125.00000000000034) rotate(0 326.67567443847656 135)"><text x="326.6756744384765" y="0" font-family="Virgil, Segoe UI Emoji" font-size="108.00000000000003px" fill="#05525a" text-anchor="middle" style="white-space: pre;" direction="ltr" dominant-baseline="text-before-edge">zkML ONNX </text><text x="326.6756744384765" y="135.00000000000003" font-family="Virgil, Segoe UI Emoji" font-size="108.00000000000003px" fill="#05525a" text-anchor="middle" style="white-space: pre;" direction="ltr" dominant-baseline="text-before-edge">compiler</text></g><g transform="translate(2524.9945078743954 148.33333333333348) rotate(0 343.17016516791455 109.16666666666669)"><text x="343.17016516791455" y="0" font-family="Virgil, Segoe UI Emoji" font-size="174.6666666666666px" fill="#05525a" text-anchor="middle" style="white-space: pre;" direction="ltr" dominant-baseline="text-before-edge">.mlir File</text></g></svg>